# MagicaVoxel @ Ephtracy

# group
o 

# material
mtllib steak-1.mtl
usemtl palette

# normals
vn 0 0 1
vn 0 0 -1
vn 1 0 0
vn -1 0 0
vn 0 -1 0
vn 0 1 0

# texcoords
vt 0.990234 0.5
vt 0.994141 0.5

# verts
v 0.2 0 0.4
v -0.6 0 0.4
v 0.2 0.3 0.4
v -0.6 0.3 0.4
v 0.7 0 0.3
v 0.2 0 0.3
v -0.6 0 0.3
v -0.7 0 0.3
v 0.7 0.3 0.3
v 0.2 0.3 0.3
v -0.6 0.3 0.3
v -0.7 0.3 0.3
v 0.8 0 0.2
v 0.7 0 0.2
v -0.7 0 0.2
v -0.8 0 0.2
v 0.8 0.3 0.2
v 0.7 0.3 0.2
v -0.7 0.3 0.2
v -0.8 0.3 0.2
v 0.9 0 0.1
v 0.8 0 0.1
v -0.8 0 0.1
v -0.9 0 0.1
v 0.9 0.3 0.1
v 0.8 0.3 0.1
v -0.8 0.3 0.1
v -0.9 0.3 0.1
v 0.9 0 0
v 0.8 0 0
v 0.9 0.3 0
v 0.8 0.3 0
v 0.8 0 -0.1
v 0.7 0 -0.1
v 0.8 0.3 -0.1
v 0.7 0.3 -0.1
v 0.7 0 -0.2
v 0.6 0 -0.2
v -0.8 0 -0.2
v -0.9 0 -0.2
v 0.7 0.3 -0.2
v 0.6 0.3 -0.2
v -0.8 0.3 -0.2
v -0.9 0.3 -0.2
v 0.6 0 -0.3
v 0.3 0 -0.3
v 0.6 0.3 -0.3
v 0.3 0.3 -0.3
v -0.7 0 -0.4
v -0.8 0 -0.4
v -0.7 0.3 -0.4
v -0.8 0.3 -0.4
v 0.3 0 -0.5
v 0 0 -0.5
v -0.5 0 -0.5
v -0.7 0 -0.5
v 0.3 0.3 -0.5
v 0 0.3 -0.5
v -0.5 0.3 -0.5
v -0.7 0.3 -0.5
v 0 0 -0.6
v -0.5 0 -0.6
v 0 0.3 -0.6
v -0.5 0.3 -0.6
v 0.9 0 0.1
v 0.9 0.3 0.1
v 0.9 0 0
v 0.9 0.3 0
v 0.8 0 0.2
v 0.8 0.3 0.2
v 0.8 0 0.1
v 0.8 0.3 0.1
v 0.8 0 0
v 0.8 0.3 0
v 0.8 0 -0.1
v 0.8 0.3 -0.1
v 0.7 0 0.3
v 0.7 0.3 0.3
v 0.7 0 0.2
v 0.7 0.3 0.2
v 0.7 0 -0.1
v 0.7 0.3 -0.1
v 0.7 0 -0.2
v 0.7 0.3 -0.2
v 0.6 0 -0.2
v 0.6 0.3 -0.2
v 0.6 0 -0.3
v 0.6 0.3 -0.3
v 0.3 0 -0.3
v 0.3 0.3 -0.3
v 0.3 0 -0.5
v 0.3 0.3 -0.5
v 0.2 0 0.4
v 0.2 0.3 0.4
v 0.2 0 0.3
v 0.2 0.3 0.3
v 0 0 -0.5
v 0 0.3 -0.5
v 0 0 -0.6
v 0 0.3 -0.6
v -0.5 0 -0.5
v -0.5 0.3 -0.5
v -0.5 0 -0.6
v -0.5 0.3 -0.6
v -0.6 0 0.4
v -0.6 0.3 0.4
v -0.6 0 0.3
v -0.6 0.3 0.3
v -0.7 0 0.3
v -0.7 0.3 0.3
v -0.7 0 0.2
v -0.7 0.3 0.2
v -0.7 0 -0.4
v -0.7 0.3 -0.4
v -0.7 0 -0.5
v -0.7 0.3 -0.5
v -0.8 0 0.2
v -0.8 0.3 0.2
v -0.8 0 0.1
v -0.8 0.3 0.1
v -0.8 0 -0.2
v -0.8 0.3 -0.2
v -0.8 0 -0.4
v -0.8 0.3 -0.4
v -0.9 0 0.1
v -0.9 0.3 0.1
v -0.9 0 -0.2
v -0.9 0.3 -0.2
v 0.9 0 0.1
v 0.9 0 0
v 0.8 0 0.2
v 0.8 0 0.1
v 0.8 0 0
v 0.8 0 -0.1
v 0.7 0 0.3
v 0.7 0 0.2
v 0.7 0 -0.1
v 0.7 0 -0.2
v 0.6 0 -0.2
v 0.6 0 -0.3
v 0.3 0 -0.3
v 0.3 0 -0.5
v 0.2 0 0.4
v 0.2 0 0.3
v 0 0 -0.5
v 0 0 -0.6
v -0.5 0 -0.5
v -0.5 0 -0.6
v -0.6 0 0.4
v -0.6 0 0.3
v -0.7 0 0.3
v -0.7 0 0.2
v -0.7 0 -0.4
v -0.7 0 -0.5
v -0.8 0 0.2
v -0.8 0 0.1
v -0.8 0 -0.2
v -0.8 0 -0.4
v -0.9 0 0.1
v -0.9 0 -0.2
v 0.9 0.3 0.1
v 0.9 0.3 0
v 0.8 0.3 0.2
v 0.8 0.3 0.1
v 0.8 0.3 0
v 0.8 0.3 -0.1
v 0.7 0.3 0.3
v 0.7 0.3 0.2
v 0.7 0.3 0.1
v 0.7 0.3 0
v 0.7 0.3 -0.1
v 0.7 0.3 -0.2
v 0.6 0.3 0.1
v 0.6 0.3 0
v 0.6 0.3 -0.1
v 0.6 0.3 -0.2
v 0.6 0.3 -0.3
v 0.5 0.3 0.2
v 0.5 0.3 0.1
v 0.5 0.3 0
v 0.5 0.3 -0.1
v 0.5 0.3 -0.2
v 0.3 0.3 0.1
v 0.3 0.3 -0.1
v 0.3 0.3 -0.2
v 0.3 0.3 -0.3
v 0.3 0.3 -0.5
v 0.2 0.3 0.4
v 0.2 0.3 0.3
v 0.2 0.3 -0.2
v 0.2 0.3 -0.4
v 0.1 0.3 0.3
v 0.1 0.3 0.2
v 0 0.3 -0.5
v 0 0.3 -0.6
v -0.1 0.3 -0.4
v -0.1 0.3 -0.5
v -0.2 0.3 0
v -0.2 0.3 -0.1
v -0.3 0.3 0.1
v -0.3 0.3 0
v -0.3 0.3 -0.2
v -0.3 0.3 -0.3
v -0.4 0.3 0.2
v -0.4 0.3 0.1
v -0.4 0.3 0
v -0.4 0.3 -0.4
v -0.4 0.3 -0.5
v -0.5 0.3 0.3
v -0.5 0.3 0.2
v -0.5 0.3 -0.3
v -0.5 0.3 -0.4
v -0.5 0.3 -0.5
v -0.5 0.3 -0.6
v -0.6 0.3 0.4
v -0.6 0.3 0.3
v -0.6 0.3 -0.2
v -0.6 0.3 -0.3
v -0.7 0.3 0.3
v -0.7 0.3 0.2
v -0.7 0.3 -0.1
v -0.7 0.3 -0.3
v -0.7 0.3 -0.4
v -0.7 0.3 -0.5
v -0.8 0.3 0.2
v -0.8 0.3 0.1
v -0.8 0.3 -0.1
v -0.8 0.3 -0.2
v -0.8 0.3 -0.4
v -0.9 0.3 0.1
v -0.9 0.3 -0.2

# faces
f 3/2/1 2/2/1 1/2/1
f 4/2/1 2/2/1 3/2/1
f 9/2/1 6/2/1 5/2/1
f 10/2/1 6/2/1 9/2/1
f 11/2/1 8/2/1 7/2/1
f 12/2/1 8/2/1 11/2/1
f 17/2/1 14/2/1 13/2/1
f 18/2/1 14/2/1 17/2/1
f 19/2/1 16/2/1 15/2/1
f 20/2/1 16/2/1 19/2/1
f 25/2/1 22/2/1 21/2/1
f 26/2/1 22/2/1 25/2/1
f 27/2/1 24/2/1 23/2/1
f 28/2/1 24/2/1 27/2/1
f 29/2/2 30/2/2 31/2/2
f 31/2/2 30/2/2 32/2/2
f 33/2/2 34/2/2 35/2/2
f 35/2/2 34/2/2 36/2/2
f 37/2/2 38/2/2 41/2/2
f 41/2/2 38/2/2 42/2/2
f 39/2/2 40/2/2 43/2/2
f 43/2/2 40/2/2 44/2/2
f 45/2/2 46/2/2 47/2/2
f 47/2/2 46/2/2 48/2/2
f 49/2/2 50/2/2 51/2/2
f 51/2/2 50/2/2 52/2/2
f 53/2/2 54/2/2 57/2/2
f 57/2/2 54/2/2 58/2/2
f 55/2/2 56/2/2 59/2/2
f 59/2/2 56/2/2 60/2/2
f 61/2/2 62/2/2 63/2/2
f 63/2/2 62/2/2 64/2/2
f 67/2/3 66/2/3 65/2/3
f 68/2/3 66/2/3 67/2/3
f 71/2/3 70/2/3 69/2/3
f 72/2/3 70/2/3 71/2/3
f 75/2/3 74/2/3 73/2/3
f 76/2/3 74/2/3 75/2/3
f 79/2/3 78/2/3 77/2/3
f 80/2/3 78/2/3 79/2/3
f 83/2/3 82/2/3 81/2/3
f 84/2/3 82/2/3 83/2/3
f 87/2/3 86/2/3 85/2/3
f 88/2/3 86/2/3 87/2/3
f 91/2/3 90/2/3 89/2/3
f 92/2/3 90/2/3 91/2/3
f 95/2/3 94/2/3 93/2/3
f 96/2/3 94/2/3 95/2/3
f 99/2/3 98/2/3 97/2/3
f 100/2/3 98/2/3 99/2/3
f 101/2/4 102/2/4 103/2/4
f 103/2/4 102/2/4 104/2/4
f 105/2/4 106/2/4 107/2/4
f 107/2/4 106/2/4 108/2/4
f 109/2/4 110/2/4 111/2/4
f 111/2/4 110/2/4 112/2/4
f 113/2/4 114/2/4 115/2/4
f 115/2/4 114/2/4 116/2/4
f 117/2/4 118/2/4 119/2/4
f 119/2/4 118/2/4 120/2/4
f 121/2/4 122/2/4 123/2/4
f 123/2/4 122/2/4 124/2/4
f 125/2/4 126/2/4 127/2/4
f 127/2/4 126/2/4 128/2/4
f 132/2/5 130/2/5 129/2/5
f 133/2/5 130/2/5 132/2/5
f 136/2/5 132/2/5 131/2/5
f 136/2/5 134/2/5 133/2/5
f 136/2/5 133/2/5 132/2/5
f 137/2/5 134/2/5 136/2/5
f 139/2/5 136/2/5 135/2/5
f 139/2/5 138/2/5 137/2/5
f 139/2/5 137/2/5 136/2/5
f 141/2/5 140/2/5 139/2/5
f 144/2/5 139/2/5 135/2/5
f 144/2/5 142/2/5 141/2/5
f 144/2/5 141/2/5 139/2/5
f 145/2/5 142/2/5 144/2/5
f 145/2/5 144/2/5 143/2/5
f 147/2/5 145/2/5 143/2/5
f 147/2/5 146/2/5 145/2/5
f 148/2/5 146/2/5 147/2/5
f 149/2/5 147/2/5 143/2/5
f 150/2/5 147/2/5 149/2/5
f 151/2/5 147/2/5 150/2/5
f 152/2/5 147/2/5 151/2/5
f 153/2/5 147/2/5 152/2/5
f 154/2/5 147/2/5 153/2/5
f 155/2/5 153/2/5 152/2/5
f 156/2/5 153/2/5 155/2/5
f 157/2/5 153/2/5 156/2/5
f 158/2/5 153/2/5 157/2/5
f 159/2/5 157/2/5 156/2/5
f 160/2/5 157/2/5 159/2/5
f 161/2/6 162/2/6 164/2/6
f 164/2/6 162/2/6 165/2/6
f 163/2/6 164/2/6 168/2/6
f 165/2/6 166/2/6 168/2/6
f 164/2/6 165/2/6 168/2/6
f 168/2/6 166/2/6 169/2/6
f 169/2/6 166/2/6 170/2/6
f 170/2/6 166/2/6 171/2/6
f 167/2/6 168/2/6 173/2/6
f 168/2/6 169/2/6 173/2/6
f 169/1/6 170/1/6 173/1/6
f 171/2/6 172/2/6 174/2/6
f 173/1/6 170/1/6 174/1/6
f 170/2/6 171/2/6 174/2/6
f 174/2/6 172/2/6 175/2/6
f 175/2/6 172/2/6 176/2/6
f 167/2/6 173/2/6 178/2/6
f 173/2/6 174/2/6 178/2/6
f 178/2/6 174/2/6 179/2/6
f 174/1/6 175/1/6 180/1/6
f 179/2/6 174/2/6 180/2/6
f 176/2/6 177/2/6 181/2/6
f 180/1/6 175/1/6 181/1/6
f 175/2/6 176/2/6 181/2/6
f 181/2/6 177/2/6 182/2/6
f 179/2/6 180/2/6 183/2/6
f 178/1/6 179/1/6 183/1/6
f 180/2/6 181/2/6 183/2/6
f 181/1/6 182/1/6 184/1/6
f 183/2/6 181/2/6 184/2/6
f 182/2/6 177/2/6 185/2/6
f 184/1/6 182/1/6 185/1/6
f 185/2/6 177/2/6 186/2/6
f 167/2/6 178/2/6 189/2/6
f 186/2/6 187/2/6 190/2/6
f 184/2/6 185/2/6 190/2/6
f 185/2/6 186/2/6 190/2/6
f 190/2/6 187/2/6 191/2/6
f 188/2/6 189/2/6 192/2/6
f 189/2/6 178/2/6 192/2/6
f 183/1/6 184/1/6 193/1/6
f 192/2/6 178/2/6 193/2/6
f 178/1/6 183/1/6 193/1/6
f 191/2/6 187/2/6 194/2/6
f 190/1/6 191/1/6 196/1/6
f 194/2/6 195/2/6 196/2/6
f 191/2/6 194/2/6 196/2/6
f 196/2/6 195/2/6 197/2/6
f 193/1/6 184/1/6 198/1/6
f 192/1/6 193/1/6 198/1/6
f 184/2/6 190/2/6 199/2/6
f 198/1/6 184/1/6 199/1/6
f 192/1/6 198/1/6 200/1/6
f 198/2/6 199/2/6 201/2/6
f 200/1/6 198/1/6 201/1/6
f 199/2/6 190/2/6 202/2/6
f 201/2/6 199/2/6 202/2/6
f 196/1/6 197/1/6 202/1/6
f 190/1/6 196/1/6 202/1/6
f 202/1/6 197/1/6 203/1/6
f 192/1/6 200/1/6 204/1/6
f 200/2/6 201/2/6 205/2/6
f 204/1/6 200/1/6 205/1/6
f 201/1/6 202/1/6 206/1/6
f 205/2/6 201/2/6 206/2/6
f 203/1/6 197/1/6 207/1/6
f 197/2/6 195/2/6 208/2/6
f 207/1/6 197/1/6 208/1/6
f 188/2/6 192/2/6 209/2/6
f 192/1/6 204/1/6 209/1/6
f 204/2/6 205/2/6 210/2/6
f 209/1/6 204/1/6 210/1/6
f 203/1/6 207/1/6 211/1/6
f 202/2/6 203/2/6 211/2/6
f 207/2/6 208/2/6 212/2/6
f 211/1/6 207/1/6 212/1/6
f 208/2/6 195/2/6 213/2/6
f 212/2/6 208/2/6 213/2/6
f 213/2/6 195/2/6 214/2/6
f 188/2/6 209/2/6 215/2/6
f 209/2/6 210/2/6 215/2/6
f 215/2/6 210/2/6 216/2/6
f 211/2/6 212/2/6 217/2/6
f 202/2/6 211/2/6 217/2/6
f 206/1/6 202/1/6 217/1/6
f 212/2/6 213/2/6 217/2/6
f 205/1/6 206/1/6 217/1/6
f 217/2/6 213/2/6 218/2/6
f 216/2/6 210/2/6 219/2/6
f 210/2/6 205/2/6 220/2/6
f 219/2/6 210/2/6 220/2/6
f 217/1/6 218/1/6 221/1/6
f 205/1/6 217/1/6 221/1/6
f 218/2/6 213/2/6 222/2/6
f 221/1/6 218/1/6 222/1/6
f 222/2/6 213/2/6 223/2/6
f 223/2/6 213/2/6 224/2/6
f 220/2/6 205/2/6 225/2/6
f 205/1/6 221/1/6 226/1/6
f 225/2/6 205/2/6 226/2/6
f 222/2/6 223/2/6 227/2/6
f 226/1/6 221/1/6 227/1/6
f 221/2/6 222/2/6 227/2/6
f 227/2/6 223/2/6 228/2/6
f 228/2/6 223/2/6 229/2/6
f 226/2/6 227/2/6 230/2/6
f 227/2/6 228/2/6 230/2/6
f 230/2/6 228/2/6 231/2/6
