# MagicaVoxel @ Ephtracy

# group
o 

# material
mtllib RaodP3.mtl
usemtl palette

# normals
vn -1 0 0
vn 1 0 0
vn 0 0 1
vn 0 0 -1
vn 0 -1 0
vn 0 1 0

# texcoords
vt 0.00976563 0.5
vt 0.0917969 0.5
vt 0.123047 0.5

# verts
v -1.1 0.3 1.5
v -1.1 0.3 -1.5
v -1.1 0.4 1.5
v -1.1 0.4 -1.5
v 1.1 0.3 1.5
v 1.1 0.3 -1.5
v 1.1 0.4 1.5
v 1.1 0.4 -1.5
v -1.1 0.3 1.5
v -1.1 0.4 1.5
v -0.9 0.3 1.5
v -0.9 0.4 1.5
v 0.9 0.3 1.5
v 0.9 0.4 1.5
v 1.1 0.3 1.5
v 1.1 0.4 1.5
v -1.1 0.3 -1.5
v -1.1 0.4 -1.5
v -0.9 0.3 -1.5
v -0.9 0.4 -1.5
v 0.9 0.3 -1.5
v 0.9 0.4 -1.5
v 1.1 0.3 -1.5
v 1.1 0.4 -1.5
v -1.1 0.3 1.5
v -0.9 0.3 1.5
v 0.9 0.3 1.5
v 1.1 0.3 1.5
v -0.1 0.3 1.4
v 0.1 0.3 1.4
v -0.1 0.3 0.6
v 0.1 0.3 0.6
v -0.1 0.3 0.4
v 0.1 0.3 0.4
v -0.1 0.3 -0.4
v 0.1 0.3 -0.4
v -0.1 0.3 -0.6
v 0.1 0.3 -0.6
v -0.1 0.3 -1.4
v 0.1 0.3 -1.4
v -1.1 0.3 -1.5
v -0.9 0.3 -1.5
v 0.9 0.3 -1.5
v 1.1 0.3 -1.5
v -1.1 0.4 1.5
v -0.9 0.4 1.5
v 0.9 0.4 1.5
v 1.1 0.4 1.5
v -0.1 0.4 1.4
v 0.1 0.4 1.4
v -0.1 0.4 0.6
v 0.1 0.4 0.6
v -0.1 0.4 0.4
v 0.1 0.4 0.4
v -0.1 0.4 -0.4
v 0.1 0.4 -0.4
v -0.1 0.4 -0.6
v 0.1 0.4 -0.6
v -0.1 0.4 -1.4
v 0.1 0.4 -1.4
v -1.1 0.4 -1.5
v -0.9 0.4 -1.5
v 0.9 0.4 -1.5
v 1.1 0.4 -1.5

# faces
f 3/2/1 2/2/1 1/2/1
f 4/2/1 2/2/1 3/2/1
f 5/2/2 6/2/2 7/2/2
f 7/2/2 6/2/2 8/2/2
f 11/2/3 10/2/3 9/2/3
f 12/2/3 10/2/3 11/2/3
f 13/1/3 12/1/3 11/1/3
f 14/1/3 12/1/3 13/1/3
f 15/2/3 14/2/3 13/2/3
f 16/2/3 14/2/3 15/2/3
f 17/2/4 18/2/4 19/2/4
f 19/2/4 18/2/4 20/2/4
f 19/1/4 20/1/4 21/1/4
f 21/1/4 20/1/4 22/1/4
f 21/2/4 22/2/4 23/2/4
f 23/2/4 22/2/4 24/2/4
f 29/1/5 27/1/5 26/1/5
f 30/1/5 27/1/5 29/1/5
f 31/1/5 29/1/5 26/1/5
f 31/3/5 30/3/5 29/3/5
f 32/1/5 27/1/5 30/1/5
f 32/3/5 30/3/5 31/3/5
f 33/1/5 31/1/5 26/1/5
f 33/1/5 32/1/5 31/1/5
f 34/1/5 27/1/5 32/1/5
f 34/1/5 32/1/5 33/1/5
f 35/1/5 33/1/5 26/1/5
f 35/3/5 34/3/5 33/3/5
f 36/1/5 27/1/5 34/1/5
f 36/3/5 34/3/5 35/3/5
f 37/1/5 35/1/5 26/1/5
f 37/1/5 36/1/5 35/1/5
f 38/1/5 27/1/5 36/1/5
f 38/1/5 36/1/5 37/1/5
f 39/1/5 37/1/5 26/1/5
f 39/3/5 38/3/5 37/3/5
f 40/1/5 27/1/5 38/1/5
f 40/3/5 38/3/5 39/3/5
f 41/2/5 26/2/5 25/2/5
f 42/1/5 39/1/5 26/1/5
f 42/2/5 26/2/5 41/2/5
f 42/1/5 40/1/5 39/1/5
f 43/1/5 27/1/5 40/1/5
f 43/1/5 40/1/5 42/1/5
f 43/2/5 28/2/5 27/2/5
f 44/2/5 28/2/5 43/2/5
f 46/1/6 47/1/6 49/1/6
f 49/1/6 47/1/6 50/1/6
f 46/1/6 49/1/6 51/1/6
f 49/3/6 50/3/6 51/3/6
f 50/1/6 47/1/6 52/1/6
f 51/3/6 50/3/6 52/3/6
f 46/1/6 51/1/6 53/1/6
f 51/1/6 52/1/6 53/1/6
f 52/1/6 47/1/6 54/1/6
f 53/1/6 52/1/6 54/1/6
f 46/1/6 53/1/6 55/1/6
f 53/3/6 54/3/6 55/3/6
f 54/1/6 47/1/6 56/1/6
f 55/3/6 54/3/6 56/3/6
f 46/1/6 55/1/6 57/1/6
f 55/1/6 56/1/6 57/1/6
f 56/1/6 47/1/6 58/1/6
f 57/1/6 56/1/6 58/1/6
f 46/1/6 57/1/6 59/1/6
f 57/3/6 58/3/6 59/3/6
f 58/1/6 47/1/6 60/1/6
f 59/3/6 58/3/6 60/3/6
f 45/2/6 46/2/6 61/2/6
f 46/1/6 59/1/6 62/1/6
f 61/2/6 46/2/6 62/2/6
f 59/1/6 60/1/6 62/1/6
f 60/1/6 47/1/6 63/1/6
f 62/1/6 60/1/6 63/1/6
f 47/2/6 48/2/6 63/2/6
f 63/2/6 48/2/6 64/2/6
