# MagicaVoxel @ Ephtracy

# group
o 

# material
mtllib fertilizer.mtl
usemtl palette

# normals
vn -1 0 0
vn 1 0 0
vn 0 0 1
vn 0 0 -1
vn 0 -1 0
vn 0 1 0

# texcoords
vt 0.306641 0.5
vt 0.888672 0.5
vt 0.900391 0.5
vt 0.958984 0.5

# verts
v -0.4 0.2 0.3
v -0.4 0.2 -0.1
v -0.4 0.2 -0.4
v -0.4 0.2 -0.8
v -0.4 0.3 0.4
v -0.4 0.3 0.3
v -0.4 0.3 -0.1
v -0.4 0.3 -0.4
v -0.4 0.3 -0.8
v -0.4 0.3 -0.9
v -0.4 0.4 0.5
v -0.4 0.4 0.4
v -0.4 0.4 -0.9
v -0.4 0.4 -1
v -0.4 0.5 0.5
v -0.4 0.5 0.4
v -0.4 0.5 -0.9
v -0.4 0.5 -1
v -0.4 0.6 0.4
v -0.4 0.6 0.3
v -0.4 0.6 -0.1
v -0.4 0.6 -0.4
v -0.4 0.6 -0.8
v -0.4 0.6 -0.9
v -0.4 0.7 0.3
v -0.4 0.7 -0.1
v -0.4 0.7 -0.4
v -0.4 0.7 -0.8
v 0.3 0.2 0.3
v 0.3 0.2 -0.1
v 0.3 0.2 -0.4
v 0.3 0.2 -0.8
v 0.3 0.3 0.4
v 0.3 0.3 0.3
v 0.3 0.3 -0.1
v 0.3 0.3 -0.4
v 0.3 0.3 -0.8
v 0.3 0.3 -0.9
v 0.3 0.4 0.5
v 0.3 0.4 0.4
v 0.3 0.4 -0.9
v 0.3 0.4 -1
v 0.3 0.5 0.5
v 0.3 0.5 0.4
v 0.3 0.5 -0.9
v 0.3 0.5 -1
v 0.3 0.6 0.4
v 0.3 0.6 0.3
v 0.3 0.6 -0.1
v 0.3 0.6 -0.4
v 0.3 0.6 -0.8
v 0.3 0.6 -0.9
v 0.3 0.7 0.3
v 0.3 0.7 -0.1
v 0.3 0.7 -0.4
v 0.3 0.7 -0.8
v -0.4 0.4 0.5
v -0.4 0.5 0.5
v 0.3 0.4 0.5
v 0.3 0.5 0.5
v -0.4 0.3 0.4
v -0.4 0.4 0.4
v -0.4 0.5 0.4
v -0.4 0.6 0.4
v 0.3 0.3 0.4
v 0.3 0.4 0.4
v 0.3 0.5 0.4
v 0.3 0.6 0.4
v -0.4 0.2 0.3
v -0.4 0.3 0.3
v -0.4 0.6 0.3
v -0.4 0.7 0.3
v 0.3 0.2 0.3
v 0.3 0.3 0.3
v 0.3 0.6 0.3
v 0.3 0.7 0.3
v -0.4 0.2 -0.8
v -0.4 0.3 -0.8
v -0.4 0.6 -0.8
v -0.4 0.7 -0.8
v 0.3 0.2 -0.8
v 0.3 0.3 -0.8
v 0.3 0.6 -0.8
v 0.3 0.7 -0.8
v -0.4 0.3 -0.9
v -0.4 0.4 -0.9
v -0.4 0.5 -0.9
v -0.4 0.6 -0.9
v 0.3 0.3 -0.9
v 0.3 0.4 -0.9
v 0.3 0.5 -0.9
v 0.3 0.6 -0.9
v -0.4 0.4 -1
v -0.4 0.5 -1
v 0.3 0.4 -1
v 0.3 0.5 -1
v -0.4 0.2 0.3
v 0.3 0.2 0.3
v -0.4 0.2 -0.1
v 0.3 0.2 -0.1
v -0.4 0.2 -0.4
v 0.3 0.2 -0.4
v -0.4 0.2 -0.8
v 0.3 0.2 -0.8
v -0.4 0.3 0.4
v 0.3 0.3 0.4
v -0.4 0.3 0.3
v 0.3 0.3 0.3
v -0.4 0.3 -0.8
v 0.3 0.3 -0.8
v -0.4 0.3 -0.9
v 0.3 0.3 -0.9
v -0.4 0.4 0.5
v 0.3 0.4 0.5
v -0.4 0.4 0.4
v 0.3 0.4 0.4
v -0.4 0.4 -0.9
v 0.3 0.4 -0.9
v -0.4 0.4 -1
v 0.3 0.4 -1
v -0.4 0.5 0.5
v 0.3 0.5 0.5
v -0.4 0.5 0.4
v 0.3 0.5 0.4
v -0.4 0.5 -0.9
v 0.3 0.5 -0.9
v -0.4 0.5 -1
v 0.3 0.5 -1
v -0.4 0.6 0.4
v 0.3 0.6 0.4
v -0.4 0.6 0.3
v 0.3 0.6 0.3
v -0.4 0.6 -0.8
v 0.3 0.6 -0.8
v -0.4 0.6 -0.9
v 0.3 0.6 -0.9
v -0.4 0.7 0.3
v 0.3 0.7 0.3
v -0.2 0.7 0.2
v 0.1 0.7 0.2
v -0.3 0.7 0.1
v -0.2 0.7 0.1
v 0.1 0.7 0.1
v 0.2 0.7 0.1
v -0.1 0.7 0
v 0 0.7 0
v -0.4 0.7 -0.1
v -0.3 0.7 -0.1
v 0.2 0.7 -0.1
v 0.3 0.7 -0.1
v -0.2 0.7 -0.3
v -0.1 0.7 -0.3
v 0 0.7 -0.3
v 0.1 0.7 -0.3
v -0.4 0.7 -0.4
v -0.3 0.7 -0.4
v -0.2 0.7 -0.4
v -0.1 0.7 -0.4
v 0.2 0.7 -0.4
v 0.3 0.7 -0.4
v 0 0.7 -0.5
v 0.1 0.7 -0.5
v -0.3 0.7 -0.6
v -0.2 0.7 -0.6
v 0.1 0.7 -0.6
v 0.2 0.7 -0.6
v -0.2 0.7 -0.7
v 0.1 0.7 -0.7
v -0.4 0.7 -0.8
v 0.3 0.7 -0.8

# faces
f 6/3/1 2/3/1 1/3/1
f 7/4/1 3/4/1 2/4/1
f 7/3/1 2/3/1 6/3/1
f 8/3/1 4/3/1 3/3/1
f 8/4/1 3/4/1 7/4/1
f 9/3/1 4/3/1 8/3/1
f 12/4/1 7/4/1 6/4/1
f 12/4/1 10/4/1 9/4/1
f 12/4/1 9/4/1 8/4/1
f 12/4/1 8/4/1 7/4/1
f 12/4/1 6/4/1 5/4/1
f 13/4/1 10/4/1 12/4/1
f 15/4/1 12/4/1 11/4/1
f 15/4/1 14/4/1 13/4/1
f 15/4/1 13/4/1 12/4/1
f 16/4/1 14/4/1 15/4/1
f 17/4/1 14/4/1 16/4/1
f 18/4/1 14/4/1 17/4/1
f 19/4/1 17/4/1 16/4/1
f 20/4/1 17/4/1 19/4/1
f 21/4/1 17/4/1 20/4/1
f 22/4/1 17/4/1 21/4/1
f 23/4/1 17/4/1 22/4/1
f 24/4/1 17/4/1 23/4/1
f 25/3/1 21/3/1 20/3/1
f 26/4/1 22/4/1 21/4/1
f 26/3/1 21/3/1 25/3/1
f 27/3/1 23/3/1 22/3/1
f 27/4/1 22/4/1 26/4/1
f 28/3/1 23/3/1 27/3/1
f 29/3/2 30/3/2 34/3/2
f 30/4/2 31/4/2 35/4/2
f 34/3/2 30/3/2 35/3/2
f 31/3/2 32/3/2 36/3/2
f 35/4/2 31/4/2 36/4/2
f 36/3/2 32/3/2 37/3/2
f 34/4/2 35/4/2 40/4/2
f 37/4/2 38/4/2 40/4/2
f 36/4/2 37/4/2 40/4/2
f 35/4/2 36/4/2 40/4/2
f 33/4/2 34/4/2 40/4/2
f 40/4/2 38/4/2 41/4/2
f 39/4/2 40/4/2 43/4/2
f 41/4/2 42/4/2 43/4/2
f 40/4/2 41/4/2 43/4/2
f 43/4/2 42/4/2 44/4/2
f 44/4/2 42/4/2 45/4/2
f 45/4/2 42/4/2 46/4/2
f 44/4/2 45/4/2 47/4/2
f 47/4/2 45/4/2 48/4/2
f 48/4/2 45/4/2 49/4/2
f 49/4/2 45/4/2 50/4/2
f 50/4/2 45/4/2 51/4/2
f 51/4/2 45/4/2 52/4/2
f 48/3/2 49/3/2 53/3/2
f 49/4/2 50/4/2 54/4/2
f 53/3/2 49/3/2 54/3/2
f 50/3/2 51/3/2 55/3/2
f 54/4/2 50/4/2 55/4/2
f 55/3/2 51/3/2 56/3/2
f 59/4/3 58/4/3 57/4/3
f 60/4/3 58/4/3 59/4/3
f 65/4/3 62/4/3 61/4/3
f 66/4/3 62/4/3 65/4/3
f 67/4/3 64/4/3 63/4/3
f 68/4/3 64/4/3 67/4/3
f 73/3/3 70/3/3 69/3/3
f 74/3/3 70/3/3 73/3/3
f 75/3/3 72/3/3 71/3/3
f 76/3/3 72/3/3 75/3/3
f 77/3/4 78/3/4 81/3/4
f 81/3/4 78/3/4 82/3/4
f 79/3/4 80/3/4 83/3/4
f 83/3/4 80/3/4 84/3/4
f 85/4/4 86/4/4 89/4/4
f 89/4/4 86/4/4 90/4/4
f 87/4/4 88/4/4 91/4/4
f 91/4/4 88/4/4 92/4/4
f 93/4/4 94/4/4 95/4/4
f 95/4/4 94/4/4 96/4/4
f 99/3/5 98/3/5 97/3/5
f 100/3/5 98/3/5 99/3/5
f 101/4/5 100/4/5 99/4/5
f 102/4/5 100/4/5 101/4/5
f 103/3/5 102/3/5 101/3/5
f 104/3/5 102/3/5 103/3/5
f 107/4/5 106/4/5 105/4/5
f 108/4/5 106/4/5 107/4/5
f 111/4/5 110/4/5 109/4/5
f 112/4/5 110/4/5 111/4/5
f 115/4/5 114/4/5 113/4/5
f 116/4/5 114/4/5 115/4/5
f 119/4/5 118/4/5 117/4/5
f 120/4/5 118/4/5 119/4/5
f 121/4/6 122/4/6 123/4/6
f 123/4/6 122/4/6 124/4/6
f 125/4/6 126/4/6 127/4/6
f 127/4/6 126/4/6 128/4/6
f 129/4/6 130/4/6 131/4/6
f 131/4/6 130/4/6 132/4/6
f 133/4/6 134/4/6 135/4/6
f 135/4/6 134/4/6 136/4/6
f 137/3/6 138/3/6 139/3/6
f 139/3/6 138/3/6 140/3/6
f 137/3/6 139/3/6 141/3/6
f 139/4/6 140/4/6 142/4/6
f 141/3/6 139/3/6 142/3/6
f 140/3/6 138/3/6 143/3/6
f 142/4/6 140/4/6 143/4/6
f 143/3/6 138/3/6 144/3/6
f 141/4/6 142/4/6 145/4/6
f 142/4/6 143/4/6 145/4/6
f 143/4/6 144/4/6 145/4/6
f 145/4/6 144/4/6 146/4/6
f 137/3/6 141/3/6 147/3/6
f 141/4/6 145/4/6 148/4/6
f 147/3/6 141/3/6 148/3/6
f 144/3/6 138/3/6 149/3/6
f 146/4/6 144/4/6 149/4/6
f 149/3/6 138/3/6 150/3/6
f 148/4/6 145/4/6 151/4/6
f 147/4/6 148/4/6 151/4/6
f 145/2/6 146/2/6 152/2/6
f 151/4/6 145/4/6 152/4/6
f 149/4/6 150/4/6 153/4/6
f 152/2/6 146/2/6 153/2/6
f 146/4/6 149/4/6 153/4/6
f 153/4/6 150/4/6 154/4/6
f 147/4/6 151/4/6 155/4/6
f 155/4/6 151/4/6 156/4/6
f 151/2/6 152/2/6 157/2/6
f 156/4/6 151/4/6 157/4/6
f 152/4/6 153/4/6 158/4/6
f 157/2/6 152/2/6 158/2/6
f 154/4/6 150/4/6 159/4/6
f 159/4/6 150/4/6 160/4/6
f 158/4/6 153/4/6 161/4/6
f 156/4/6 157/4/6 161/4/6
f 153/2/6 154/2/6 161/2/6
f 157/4/6 158/4/6 161/4/6
f 154/4/6 159/4/6 162/4/6
f 161/2/6 154/2/6 162/2/6
f 155/3/6 156/3/6 163/3/6
f 156/4/6 161/4/6 163/4/6
f 161/4/6 162/4/6 163/4/6
f 163/4/6 162/4/6 164/4/6
f 162/4/6 159/4/6 165/4/6
f 164/4/6 162/4/6 165/4/6
f 159/3/6 160/3/6 166/3/6
f 165/4/6 159/4/6 166/4/6
f 163/3/6 164/3/6 167/3/6
f 164/4/6 165/4/6 167/4/6
f 165/3/6 166/3/6 168/3/6
f 167/4/6 165/4/6 168/4/6
f 163/3/6 167/3/6 169/3/6
f 155/3/6 163/3/6 169/3/6
f 167/3/6 168/3/6 169/3/6
f 166/3/6 160/3/6 170/3/6
f 169/3/6 168/3/6 170/3/6
f 168/3/6 166/3/6 170/3/6
