# MagicaVoxel @ Ephtracy

# group
o 

# material
mtllib fertilizer_box.mtl
usemtl palette

# normals
vn -1 0 0
vn 1 0 0
vn 0 0 1
vn 0 0 -1
vn 0 -1 0
vn 0 1 0

# texcoords
vt 0.888672 0.5
vt 0.900391 0.5
vt 0.958984 0.5

# verts
v -0.5 0 0.5
v -0.5 0 -0.4
v -0.5 0.1 0.1
v -0.5 0.1 0
v -0.5 0.4 0.2
v -0.5 0.4 0.1
v -0.5 0.4 0
v -0.5 0.4 -0.1
v -0.5 0.5 0.3
v -0.5 0.5 0.2
v -0.5 0.5 -0.1
v -0.5 0.5 -0.2
v -0.5 0.6 0.4
v -0.5 0.6 0.3
v -0.5 0.6 0.1
v -0.5 0.6 0
v -0.5 0.7 0.2
v -0.5 0.7 0.1
v -0.5 0.7 0
v -0.5 0.7 -0.2
v -0.5 0.8 0.4
v -0.5 0.8 0.2
v -0.5 1 0.5
v -0.5 1 -0.4
v -0.4 1 0.4
v -0.4 1 -0.3
v -0.4 1.1 0.4
v -0.4 1.1 -0.3
v -0.3 1.1 0.3
v -0.3 1.1 -0.2
v -0.3 1.2 0.3
v -0.3 1.2 -0.2
v -0.2 1.2 0.2
v -0.2 1.2 -0.1
v -0.2 1.3 0.2
v -0.2 1.3 -0.1
v -0.2 1.5 0.2
v -0.2 1.5 -0.1
v 0.1 1.2 0.2
v 0.1 1.2 -0.1
v 0.1 1.3 0.2
v 0.1 1.3 -0.1
v 0.1 1.5 0.2
v 0.1 1.5 -0.1
v 0.2 1.1 0.3
v 0.2 1.1 -0.2
v 0.2 1.2 0.3
v 0.2 1.2 -0.2
v 0.3 1 0.4
v 0.3 1 -0.3
v 0.3 1.1 0.4
v 0.3 1.1 -0.3
v 0.4 0 0.5
v 0.4 0 -0.4
v 0.4 0.1 0.1
v 0.4 0.1 0
v 0.4 0.4 0.2
v 0.4 0.4 0.1
v 0.4 0.4 0
v 0.4 0.4 -0.1
v 0.4 0.5 0.3
v 0.4 0.5 0.2
v 0.4 0.5 -0.1
v 0.4 0.5 -0.2
v 0.4 0.6 0.1
v 0.4 0.6 0
v 0.4 0.6 -0.2
v 0.4 0.6 -0.3
v 0.4 0.7 0.3
v 0.4 0.7 0.1
v 0.4 0.7 0
v 0.4 0.7 -0.1
v 0.4 0.8 -0.1
v 0.4 0.8 -0.3
v 0.4 1 0.5
v 0.4 1 -0.4
v -0.5 0 0.5
v -0.5 1 0.5
v -0.3 0.5 0.5
v -0.3 0.7 0.5
v -0.2 0.4 0.5
v -0.2 0.5 0.5
v -0.1 0.1 0.5
v -0.1 0.4 0.5
v -0.1 0.6 0.5
v -0.1 0.7 0.5
v 0 0.1 0.5
v 0 0.4 0.5
v 0 0.6 0.5
v 0 0.7 0.5
v 0.1 0.4 0.5
v 0.1 0.5 0.5
v 0.1 0.7 0.5
v 0.1 0.8 0.5
v 0.2 0.5 0.5
v 0.2 0.6 0.5
v 0.3 0.6 0.5
v 0.3 0.8 0.5
v 0.4 0 0.5
v 0.4 1 0.5
v -0.4 1 0.4
v -0.4 1.1 0.4
v 0.3 1 0.4
v 0.3 1.1 0.4
v -0.3 1.1 0.3
v -0.3 1.2 0.3
v 0.2 1.1 0.3
v 0.2 1.2 0.3
v -0.2 1.2 0.2
v -0.2 1.3 0.2
v -0.2 1.5 0.2
v 0.1 1.2 0.2
v 0.1 1.3 0.2
v 0.1 1.5 0.2
v -0.2 1.2 -0.1
v -0.2 1.3 -0.1
v -0.2 1.5 -0.1
v 0.1 1.2 -0.1
v 0.1 1.3 -0.1
v 0.1 1.5 -0.1
v -0.3 1.1 -0.2
v -0.3 1.2 -0.2
v 0.2 1.1 -0.2
v 0.2 1.2 -0.2
v -0.4 1 -0.3
v -0.4 1.1 -0.3
v 0.3 1 -0.3
v 0.3 1.1 -0.3
v -0.5 0 -0.4
v -0.5 1 -0.4
v -0.4 0.6 -0.4
v -0.4 0.8 -0.4
v -0.3 0.5 -0.4
v -0.3 0.6 -0.4
v -0.2 0.4 -0.4
v -0.2 0.5 -0.4
v -0.2 0.7 -0.4
v -0.2 0.8 -0.4
v -0.1 0.1 -0.4
v -0.1 0.4 -0.4
v -0.1 0.6 -0.4
v -0.1 0.7 -0.4
v 0 0.1 -0.4
v 0 0.4 -0.4
v 0 0.6 -0.4
v 0 0.7 -0.4
v 0.1 0.4 -0.4
v 0.1 0.5 -0.4
v 0.2 0.5 -0.4
v 0.2 0.7 -0.4
v 0.4 0 -0.4
v 0.4 1 -0.4
v -0.5 0 0.5
v 0.4 0 0.5
v -0.5 0 -0.4
v 0.4 0 -0.4
v -0.5 1 0.5
v 0.4 1 0.5
v -0.4 1 0.4
v 0.3 1 0.4
v -0.4 1 -0.3
v 0.3 1 -0.3
v -0.5 1 -0.4
v 0.4 1 -0.4
v -0.4 1.1 0.4
v 0.3 1.1 0.4
v -0.3 1.1 0.3
v 0.2 1.1 0.3
v -0.3 1.1 -0.2
v 0.2 1.1 -0.2
v -0.4 1.1 -0.3
v 0.3 1.1 -0.3
v -0.3 1.2 0.3
v 0.2 1.2 0.3
v -0.2 1.2 0.2
v 0.1 1.2 0.2
v -0.2 1.2 -0.1
v 0.1 1.2 -0.1
v -0.3 1.2 -0.2
v 0.2 1.2 -0.2
v -0.2 1.5 0.2
v 0.1 1.5 0.2
v -0.2 1.5 -0.1
v 0.1 1.5 -0.1

# faces
f 3/3/1 2/3/1 1/3/1
f 4/3/1 2/3/1 3/3/1
f 5/3/1 3/3/1 1/3/1
f 6/1/1 4/1/1 3/1/1
f 6/3/1 3/3/1 5/3/1
f 7/3/1 2/3/1 4/3/1
f 7/1/1 4/1/1 6/1/1
f 8/3/1 2/3/1 7/3/1
f 9/3/1 5/3/1 1/3/1
f 10/1/1 6/1/1 5/1/1
f 10/3/1 5/3/1 9/3/1
f 10/1/1 7/1/1 6/1/1
f 10/1/1 8/1/1 7/1/1
f 11/3/1 2/3/1 8/3/1
f 11/1/1 8/1/1 10/1/1
f 12/3/1 2/3/1 11/3/1
f 13/3/1 9/3/1 1/3/1
f 14/1/1 10/1/1 9/1/1
f 14/3/1 9/3/1 13/3/1
f 14/1/1 11/1/1 10/1/1
f 14/1/1 12/1/1 11/1/1
f 15/1/1 12/1/1 14/1/1
f 16/1/1 12/1/1 15/1/1
f 17/1/1 14/1/1 13/1/1
f 17/1/1 15/1/1 14/1/1
f 18/3/1 16/3/1 15/3/1
f 18/1/1 15/1/1 17/1/1
f 19/1/1 12/1/1 16/1/1
f 19/3/1 16/3/1 18/3/1
f 20/3/1 2/3/1 12/3/1
f 20/1/1 12/1/1 19/1/1
f 21/3/1 13/3/1 1/3/1
f 21/1/1 17/1/1 13/1/1
f 22/3/1 19/3/1 18/3/1
f 22/1/1 17/1/1 21/1/1
f 22/3/1 18/3/1 17/3/1
f 22/3/1 20/3/1 19/3/1
f 23/3/1 21/3/1 1/3/1
f 23/3/1 22/3/1 21/3/1
f 24/3/1 20/3/1 22/3/1
f 24/3/1 22/3/1 23/3/1
f 24/3/1 2/3/1 20/3/1
f 27/3/1 26/3/1 25/3/1
f 28/3/1 26/3/1 27/3/1
f 31/3/1 30/3/1 29/3/1
f 32/3/1 30/3/1 31/3/1
f 35/3/1 34/3/1 33/3/1
f 36/3/1 34/3/1 35/3/1
f 37/2/1 36/2/1 35/2/1
f 38/2/1 36/2/1 37/2/1
f 39/3/2 40/3/2 41/3/2
f 41/3/2 40/3/2 42/3/2
f 41/2/2 42/2/2 43/2/2
f 43/2/2 42/2/2 44/2/2
f 45/3/2 46/3/2 47/3/2
f 47/3/2 46/3/2 48/3/2
f 49/3/2 50/3/2 51/3/2
f 51/3/2 50/3/2 52/3/2
f 53/3/2 54/3/2 55/3/2
f 55/3/2 54/3/2 56/3/2
f 53/3/2 55/3/2 57/3/2
f 55/1/2 56/1/2 58/1/2
f 57/3/2 55/3/2 58/3/2
f 56/3/2 54/3/2 59/3/2
f 58/1/2 56/1/2 59/1/2
f 59/3/2 54/3/2 60/3/2
f 53/3/2 57/3/2 61/3/2
f 57/1/2 58/1/2 62/1/2
f 61/3/2 57/3/2 62/3/2
f 58/1/2 59/1/2 62/1/2
f 59/1/2 60/1/2 62/1/2
f 60/3/2 54/3/2 63/3/2
f 62/1/2 60/1/2 63/1/2
f 63/3/2 54/3/2 64/3/2
f 61/1/2 62/1/2 65/1/2
f 62/1/2 63/1/2 65/1/2
f 63/1/2 64/1/2 65/1/2
f 65/1/2 64/1/2 66/1/2
f 64/3/2 54/3/2 67/3/2
f 66/1/2 64/1/2 67/1/2
f 67/3/2 54/3/2 68/3/2
f 53/3/2 61/3/2 69/3/2
f 61/1/2 65/1/2 69/1/2
f 65/3/2 66/3/2 70/3/2
f 69/1/2 65/1/2 70/1/2
f 67/1/2 68/1/2 71/1/2
f 70/3/2 66/3/2 71/3/2
f 66/1/2 67/1/2 71/1/2
f 71/1/2 68/1/2 72/1/2
f 69/3/2 70/3/2 73/3/2
f 72/1/2 68/1/2 73/1/2
f 71/3/2 72/3/2 73/3/2
f 70/3/2 71/3/2 73/3/2
f 68/3/2 54/3/2 74/3/2
f 73/1/2 68/1/2 74/1/2
f 69/3/2 73/3/2 75/3/2
f 53/3/2 69/3/2 75/3/2
f 73/3/2 74/3/2 75/3/2
f 74/3/2 54/3/2 76/3/2
f 75/3/2 74/3/2 76/3/2
f 79/3/3 78/3/3 77/3/3
f 80/3/3 78/3/3 79/3/3
f 81/3/3 79/3/3 77/3/3
f 82/1/3 80/1/3 79/1/3
f 82/3/3 79/3/3 81/3/3
f 83/3/3 81/3/3 77/3/3
f 84/1/3 82/1/3 81/1/3
f 84/3/3 81/3/3 83/3/3
f 85/1/3 80/1/3 82/1/3
f 85/1/3 82/1/3 84/1/3
f 86/3/3 78/3/3 80/3/3
f 86/1/3 80/1/3 85/1/3
f 87/1/3 85/1/3 84/1/3
f 87/1/3 84/1/3 83/1/3
f 87/3/3 83/3/3 77/3/3
f 88/1/3 85/1/3 87/1/3
f 89/3/3 86/3/3 85/3/3
f 89/1/3 85/1/3 88/1/3
f 90/3/3 78/3/3 86/3/3
f 90/3/3 86/3/3 89/3/3
f 91/1/3 89/1/3 88/1/3
f 91/3/3 88/3/3 87/3/3
f 91/1/3 90/1/3 89/1/3
f 92/1/3 90/1/3 91/1/3
f 93/3/3 78/3/3 90/3/3
f 93/1/3 90/1/3 92/1/3
f 94/3/3 78/3/3 93/3/3
f 95/3/3 92/3/3 91/3/3
f 95/1/3 93/1/3 92/1/3
f 95/1/3 94/1/3 93/1/3
f 96/1/3 94/1/3 95/1/3
f 97/3/3 96/3/3 95/3/3
f 97/1/3 94/1/3 96/1/3
f 98/3/3 78/3/3 94/3/3
f 98/1/3 94/1/3 97/1/3
f 99/3/3 97/3/3 95/3/3
f 99/3/3 87/3/3 77/3/3
f 99/3/3 98/3/3 97/3/3
f 99/3/3 95/3/3 91/3/3
f 99/3/3 91/3/3 87/3/3
f 100/3/3 78/3/3 98/3/3
f 100/3/3 98/3/3 99/3/3
f 103/3/3 102/3/3 101/3/3
f 104/3/3 102/3/3 103/3/3
f 107/3/3 106/3/3 105/3/3
f 108/3/3 106/3/3 107/3/3
f 112/3/3 110/3/3 109/3/3
f 113/2/3 111/2/3 110/2/3
f 113/3/3 110/3/3 112/3/3
f 114/2/3 111/2/3 113/2/3
f 115/3/4 116/3/4 118/3/4
f 116/2/4 117/2/4 119/2/4
f 118/3/4 116/3/4 119/3/4
f 119/2/4 117/2/4 120/2/4
f 121/3/4 122/3/4 123/3/4
f 123/3/4 122/3/4 124/3/4
f 125/3/4 126/3/4 127/3/4
f 127/3/4 126/3/4 128/3/4
f 129/3/4 130/3/4 131/3/4
f 131/3/4 130/3/4 132/3/4
f 129/3/4 131/3/4 133/3/4
f 131/1/4 132/1/4 134/1/4
f 133/3/4 131/3/4 134/3/4
f 129/3/4 133/3/4 135/3/4
f 133/1/4 134/1/4 136/1/4
f 135/3/4 133/3/4 136/3/4
f 134/1/4 132/1/4 137/1/4
f 136/1/4 134/1/4 137/1/4
f 132/3/4 130/3/4 138/3/4
f 137/1/4 132/1/4 138/1/4
f 129/3/4 135/3/4 139/3/4
f 136/1/4 137/1/4 140/1/4
f 139/3/4 135/3/4 140/3/4
f 135/1/4 136/1/4 140/1/4
f 140/1/4 137/1/4 141/1/4
f 137/3/4 138/3/4 142/3/4
f 141/1/4 137/1/4 142/1/4
f 129/3/4 139/3/4 143/3/4
f 140/1/4 141/1/4 143/1/4
f 139/1/4 140/1/4 143/1/4
f 143/1/4 141/1/4 144/1/4
f 141/3/4 142/3/4 145/3/4
f 144/1/4 141/1/4 145/1/4
f 142/3/4 138/3/4 146/3/4
f 145/3/4 142/3/4 146/3/4
f 144/1/4 145/1/4 147/1/4
f 143/3/4 144/3/4 147/3/4
f 145/1/4 146/1/4 147/1/4
f 147/1/4 146/1/4 148/1/4
f 147/3/4 148/3/4 149/3/4
f 148/1/4 146/1/4 149/1/4
f 146/3/4 138/3/4 150/3/4
f 149/1/4 146/1/4 150/1/4
f 147/3/4 149/3/4 151/3/4
f 129/3/4 143/3/4 151/3/4
f 149/3/4 150/3/4 151/3/4
f 143/3/4 147/3/4 151/3/4
f 150/3/4 138/3/4 152/3/4
f 151/3/4 150/3/4 152/3/4
f 138/3/4 130/3/4 152/3/4
f 155/3/5 154/3/5 153/3/5
f 156/3/5 154/3/5 155/3/5
f 157/3/6 158/3/6 159/3/6
f 159/3/6 158/3/6 160/3/6
f 157/3/6 159/3/6 161/3/6
f 160/3/6 158/3/6 162/3/6
f 157/3/6 161/3/6 163/3/6
f 161/3/6 162/3/6 163/3/6
f 162/3/6 158/3/6 164/3/6
f 163/3/6 162/3/6 164/3/6
f 165/3/6 166/3/6 167/3/6
f 167/3/6 166/3/6 168/3/6
f 165/3/6 167/3/6 169/3/6
f 168/3/6 166/3/6 170/3/6
f 165/3/6 169/3/6 171/3/6
f 169/3/6 170/3/6 171/3/6
f 170/3/6 166/3/6 172/3/6
f 171/3/6 170/3/6 172/3/6
f 173/3/6 174/3/6 175/3/6
f 175/3/6 174/3/6 176/3/6
f 173/3/6 175/3/6 177/3/6
f 176/3/6 174/3/6 178/3/6
f 173/3/6 177/3/6 179/3/6
f 177/3/6 178/3/6 179/3/6
f 178/3/6 174/3/6 180/3/6
f 179/3/6 178/3/6 180/3/6
f 181/2/6 182/2/6 183/2/6
f 183/2/6 182/2/6 184/2/6
