# MagicaVoxel @ Ephtracy

# group
o 

# material
mtllib money.mtl
usemtl palette

# normals
vn -1 0 0
vn 1 0 0
vn 0 0 1
vn 0 0 -1
vn 0 -1 0
vn 0 1 0

# texcoords
vt 0.888672 0.5
vt 0.896484 0.5
vt 0.958984 0.5
vt 0.994141 0.5

# verts
v -1 0 0.7
v -1 0 0.1
v -1 0 0
v -1 0 -0.6
v -1 0.2 0.7
v -1 0.2 0.1
v -1 0.2 0
v -1 0.2 -0.6
v -1 0.3 0.7
v -1 0.3 0.1
v -1 0.3 0
v -1 0.3 -0.6
v -1 0.5 0.7
v -1 0.5 0.1
v -1 0.5 0
v -1 0.5 -0.6
v -0.5 -0.1 0.8
v -0.5 -0.1 -0.7
v -0.5 0 0.7
v -0.5 0 0.1
v -0.5 0 0
v -0.5 0 -0.6
v -0.5 0.2 0.7
v -0.5 0.2 -0.6
v -0.5 0.3 0.7
v -0.5 0.3 -0.6
v -0.5 0.5 0.7
v -0.5 0.5 0.6
v -0.5 0.5 0.5
v -0.5 0.5 0.3
v -0.5 0.5 0.2
v -0.5 0.5 0.1
v -0.5 0.5 0
v -0.5 0.5 -0.1
v -0.5 0.5 -0.2
v -0.5 0.5 -0.4
v -0.5 0.5 -0.5
v -0.5 0.5 -0.6
v -0.5 0.6 0.8
v -0.5 0.6 -0.7
v 0.4 -0.1 0.8
v 0.4 -0.1 0.1
v 0.4 -0.1 0
v 0.4 -0.1 -0.7
v 0.4 0 0.7
v 0.4 0 0.1
v 0.4 0 0
v 0.4 0 -0.6
v 0.4 0.2 0.7
v 0.4 0.2 -0.6
v 0.4 0.3 0.7
v 0.4 0.3 -0.6
v 0.4 0.5 0.7
v 0.4 0.5 0.6
v 0.4 0.5 0.5
v 0.4 0.5 0.3
v 0.4 0.5 0.2
v 0.4 0.5 0.1
v 0.4 0.5 0
v 0.4 0.5 -0.1
v 0.4 0.5 -0.2
v 0.4 0.5 -0.4
v 0.4 0.5 -0.5
v 0.4 0.5 -0.6
v 0.4 0.6 0.8
v 0.4 0.6 0.1
v 0.4 0.6 0
v 0.4 0.6 -0.7
v -0.4 -0.1 0.8
v -0.4 -0.1 0.1
v -0.4 -0.1 0
v -0.4 -0.1 -0.7
v -0.4 0 0.7
v -0.4 0 0.1
v -0.4 0 0
v -0.4 0 -0.6
v -0.4 0.2 0.7
v -0.4 0.2 -0.6
v -0.4 0.3 0.7
v -0.4 0.3 -0.6
v -0.4 0.5 0.7
v -0.4 0.5 0.6
v -0.4 0.5 0.5
v -0.4 0.5 0.3
v -0.4 0.5 0.2
v -0.4 0.5 0.1
v -0.4 0.5 0
v -0.4 0.5 -0.1
v -0.4 0.5 -0.2
v -0.4 0.5 -0.4
v -0.4 0.5 -0.5
v -0.4 0.5 -0.6
v -0.4 0.6 0.8
v -0.4 0.6 0.1
v -0.4 0.6 0
v -0.4 0.6 -0.7
v 0.5 -0.1 0.8
v 0.5 -0.1 -0.7
v 0.5 0 0.7
v 0.5 0 0.1
v 0.5 0 0
v 0.5 0 -0.6
v 0.5 0.2 0.7
v 0.5 0.2 -0.6
v 0.5 0.3 0.7
v 0.5 0.3 -0.6
v 0.5 0.5 0.7
v 0.5 0.5 0.6
v 0.5 0.5 0.5
v 0.5 0.5 0.3
v 0.5 0.5 0.2
v 0.5 0.5 0.1
v 0.5 0.5 0
v 0.5 0.5 -0.1
v 0.5 0.5 -0.2
v 0.5 0.5 -0.4
v 0.5 0.5 -0.5
v 0.5 0.5 -0.6
v 0.5 0.6 0.8
v 0.5 0.6 -0.7
v 1 0 0.7
v 1 0 0.1
v 1 0 0
v 1 0 -0.6
v 1 0.2 0.7
v 1 0.2 0.1
v 1 0.2 0
v 1 0.2 -0.6
v 1 0.3 0.7
v 1 0.3 0.1
v 1 0.3 0
v 1 0.3 -0.6
v 1 0.5 0.7
v 1 0.5 0.1
v 1 0.5 0
v 1 0.5 -0.6
v -0.5 -0.1 0.8
v -0.5 0.6 0.8
v -0.4 -0.1 0.8
v -0.4 0.6 0.8
v 0.4 -0.1 0.8
v 0.4 0.6 0.8
v 0.5 -0.1 0.8
v 0.5 0.6 0.8
v -1 0 0.7
v -1 0.2 0.7
v -1 0.3 0.7
v -1 0.5 0.7
v -0.9 0 0.7
v -0.9 0.2 0.7
v -0.9 0.3 0.7
v -0.9 0.5 0.7
v -0.8 0 0.7
v -0.8 0.2 0.7
v -0.8 0.3 0.7
v -0.8 0.5 0.7
v -0.5 0 0.7
v -0.5 0.2 0.7
v -0.5 0.3 0.7
v -0.5 0.5 0.7
v -0.4 0 0.7
v -0.4 0.2 0.7
v -0.4 0.3 0.7
v -0.4 0.5 0.7
v -0.1 0 0.7
v -0.1 0.2 0.7
v -0.1 0.3 0.7
v -0.1 0.5 0.7
v 0.1 0 0.7
v 0.1 0.2 0.7
v 0.1 0.3 0.7
v 0.1 0.5 0.7
v 0.4 0 0.7
v 0.4 0.2 0.7
v 0.4 0.3 0.7
v 0.4 0.5 0.7
v 0.5 0 0.7
v 0.5 0.2 0.7
v 0.5 0.3 0.7
v 0.5 0.5 0.7
v 0.8 0 0.7
v 0.8 0.2 0.7
v 0.8 0.3 0.7
v 0.8 0.5 0.7
v 0.9 0 0.7
v 0.9 0.2 0.7
v 0.9 0.3 0.7
v 0.9 0.5 0.7
v 1 0 0.7
v 1 0.2 0.7
v 1 0.3 0.7
v 1 0.5 0.7
v -0.4 -0.1 0.1
v -0.4 0 0.1
v -0.4 0.5 0.1
v -0.4 0.6 0.1
v -0.1 0 0.1
v -0.1 0.5 0.1
v 0.1 0 0.1
v 0.1 0.5 0.1
v 0.4 -0.1 0.1
v 0.4 0 0.1
v 0.4 0.5 0.1
v 0.4 0.6 0.1
v -0.4 -0.1 0
v -0.4 0 0
v -0.4 0.5 0
v -0.4 0.6 0
v -0.1 0 0
v -0.1 0.5 0
v 0.1 0 0
v 0.1 0.5 0
v 0.4 -0.1 0
v 0.4 0 0
v 0.4 0.5 0
v 0.4 0.6 0
v -1 0 -0.6
v -1 0.2 -0.6
v -1 0.3 -0.6
v -1 0.5 -0.6
v -0.9 0 -0.6
v -0.9 0.2 -0.6
v -0.9 0.3 -0.6
v -0.9 0.5 -0.6
v -0.8 0 -0.6
v -0.8 0.2 -0.6
v -0.8 0.3 -0.6
v -0.8 0.5 -0.6
v -0.5 0 -0.6
v -0.5 0.2 -0.6
v -0.5 0.3 -0.6
v -0.5 0.5 -0.6
v -0.4 0 -0.6
v -0.4 0.2 -0.6
v -0.4 0.3 -0.6
v -0.4 0.5 -0.6
v -0.1 0 -0.6
v -0.1 0.2 -0.6
v -0.1 0.3 -0.6
v -0.1 0.5 -0.6
v 0.1 0 -0.6
v 0.1 0.2 -0.6
v 0.1 0.3 -0.6
v 0.1 0.5 -0.6
v 0.4 0 -0.6
v 0.4 0.2 -0.6
v 0.4 0.3 -0.6
v 0.4 0.5 -0.6
v 0.5 0 -0.6
v 0.5 0.2 -0.6
v 0.5 0.3 -0.6
v 0.5 0.5 -0.6
v 0.8 0 -0.6
v 0.8 0.2 -0.6
v 0.8 0.3 -0.6
v 0.8 0.5 -0.6
v 0.9 0 -0.6
v 0.9 0.2 -0.6
v 0.9 0.3 -0.6
v 0.9 0.5 -0.6
v 1 0 -0.6
v 1 0.2 -0.6
v 1 0.3 -0.6
v 1 0.5 -0.6
v -0.5 -0.1 -0.7
v -0.5 0.6 -0.7
v -0.4 -0.1 -0.7
v -0.4 0.6 -0.7
v 0.4 -0.1 -0.7
v 0.4 0.6 -0.7
v 0.5 -0.1 -0.7
v 0.5 0.6 -0.7
v -0.5 -0.1 0.8
v -0.4 -0.1 0.8
v 0.4 -0.1 0.8
v 0.5 -0.1 0.8
v -0.4 -0.1 0.1
v 0.4 -0.1 0.1
v -0.4 -0.1 0
v 0.4 -0.1 0
v -0.5 -0.1 -0.7
v -0.4 -0.1 -0.7
v 0.4 -0.1 -0.7
v 0.5 -0.1 -0.7
v -1 0 0.7
v -0.9 0 0.7
v -0.8 0 0.7
v -0.5 0 0.7
v -0.4 0 0.7
v -0.1 0 0.7
v 0.1 0 0.7
v 0.4 0 0.7
v 0.5 0 0.7
v 0.8 0 0.7
v 0.9 0 0.7
v 1 0 0.7
v -1 0 0.1
v -0.9 0 0.1
v -0.8 0 0.1
v -0.5 0 0.1
v -0.4 0 0.1
v -0.1 0 0.1
v 0.1 0 0.1
v 0.4 0 0.1
v 0.5 0 0.1
v 0.8 0 0.1
v 0.9 0 0.1
v 1 0 0.1
v -1 0 0
v -0.9 0 0
v -0.8 0 0
v -0.5 0 0
v -0.4 0 0
v -0.1 0 0
v 0.1 0 0
v 0.4 0 0
v 0.5 0 0
v 0.8 0 0
v 0.9 0 0
v 1 0 0
v -1 0 -0.6
v -0.9 0 -0.6
v -0.8 0 -0.6
v -0.5 0 -0.6
v -0.4 0 -0.6
v -0.1 0 -0.6
v 0.1 0 -0.6
v 0.4 0 -0.6
v 0.5 0 -0.6
v 0.8 0 -0.6
v 0.9 0 -0.6
v 1 0 -0.6
v -1 0.5 0.7
v -0.9 0.5 0.7
v -0.8 0.5 0.7
v -0.5 0.5 0.7
v -0.4 0.5 0.7
v -0.1 0.5 0.7
v 0.1 0.5 0.7
v 0.4 0.5 0.7
v 0.5 0.5 0.7
v 0.8 0.5 0.7
v 0.9 0.5 0.7
v 1 0.5 0.7
v -0.6 0.5 0.6
v -0.5 0.5 0.6
v -0.4 0.5 0.6
v -0.3 0.5 0.6
v 0.3 0.5 0.6
v 0.4 0.5 0.6
v 0.5 0.5 0.6
v 0.6 0.5 0.6
v -0.7 0.5 0.5
v -0.6 0.5 0.5
v -0.5 0.5 0.5
v -0.4 0.5 0.5
v -0.3 0.5 0.5
v -0.2 0.5 0.5
v 0.2 0.5 0.5
v 0.3 0.5 0.5
v 0.4 0.5 0.5
v 0.5 0.5 0.5
v 0.6 0.5 0.5
v 0.7 0.5 0.5
v -0.7 0.5 0.3
v -0.6 0.5 0.3
v -0.5 0.5 0.3
v -0.4 0.5 0.3
v -0.3 0.5 0.3
v -0.2 0.5 0.3
v 0.2 0.5 0.3
v 0.3 0.5 0.3
v 0.4 0.5 0.3
v 0.5 0.5 0.3
v 0.6 0.5 0.3
v 0.7 0.5 0.3
v -0.6 0.5 0.2
v -0.5 0.5 0.2
v -0.4 0.5 0.2
v -0.3 0.5 0.2
v 0.3 0.5 0.2
v 0.4 0.5 0.2
v 0.5 0.5 0.2
v 0.6 0.5 0.2
v -1 0.5 0.1
v -0.9 0.5 0.1
v -0.8 0.5 0.1
v -0.5 0.5 0.1
v -0.4 0.5 0.1
v -0.1 0.5 0.1
v 0.1 0.5 0.1
v 0.4 0.5 0.1
v 0.5 0.5 0.1
v 0.8 0.5 0.1
v 0.9 0.5 0.1
v 1 0.5 0.1
v -1 0.5 0
v -0.9 0.5 0
v -0.8 0.5 0
v -0.5 0.5 0
v -0.4 0.5 0
v -0.1 0.5 0
v 0.1 0.5 0
v 0.4 0.5 0
v 0.5 0.5 0
v 0.8 0.5 0
v 0.9 0.5 0
v 1 0.5 0
v -0.6 0.5 -0.1
v -0.5 0.5 -0.1
v -0.4 0.5 -0.1
v -0.3 0.5 -0.1
v 0.3 0.5 -0.1
v 0.4 0.5 -0.1
v 0.5 0.5 -0.1
v 0.6 0.5 -0.1
v -0.7 0.5 -0.2
v -0.6 0.5 -0.2
v -0.5 0.5 -0.2
v -0.4 0.5 -0.2
v -0.3 0.5 -0.2
v -0.2 0.5 -0.2
v 0.2 0.5 -0.2
v 0.3 0.5 -0.2
v 0.4 0.5 -0.2
v 0.5 0.5 -0.2
v 0.6 0.5 -0.2
v 0.7 0.5 -0.2
v -0.7 0.5 -0.4
v -0.6 0.5 -0.4
v -0.5 0.5 -0.4
v -0.4 0.5 -0.4
v -0.3 0.5 -0.4
v -0.2 0.5 -0.4
v 0.2 0.5 -0.4
v 0.3 0.5 -0.4
v 0.4 0.5 -0.4
v 0.5 0.5 -0.4
v 0.6 0.5 -0.4
v 0.7 0.5 -0.4
v -0.6 0.5 -0.5
v -0.5 0.5 -0.5
v -0.4 0.5 -0.5
v -0.3 0.5 -0.5
v 0.3 0.5 -0.5
v 0.4 0.5 -0.5
v 0.5 0.5 -0.5
v 0.6 0.5 -0.5
v -1 0.5 -0.6
v -0.9 0.5 -0.6
v -0.8 0.5 -0.6
v -0.5 0.5 -0.6
v -0.4 0.5 -0.6
v -0.1 0.5 -0.6
v 0.1 0.5 -0.6
v 0.4 0.5 -0.6
v 0.5 0.5 -0.6
v 0.8 0.5 -0.6
v 0.9 0.5 -0.6
v 1 0.5 -0.6
v -0.5 0.6 0.8
v -0.4 0.6 0.8
v 0.4 0.6 0.8
v 0.5 0.6 0.8
v -0.4 0.6 0.1
v 0.4 0.6 0.1
v -0.4 0.6 0
v 0.4 0.6 0
v -0.5 0.6 -0.7
v -0.4 0.6 -0.7
v 0.4 0.6 -0.7
v 0.5 0.6 -0.7

# faces
f 5/1/1 2/1/1 1/1/1
f 6/2/1 3/2/1 2/2/1
f 6/1/1 2/1/1 5/1/1
f 7/1/1 4/1/1 3/1/1
f 7/2/1 3/2/1 6/2/1
f 8/1/1 4/1/1 7/1/1
f 9/2/1 6/2/1 5/2/1
f 9/2/1 7/2/1 6/2/1
f 9/2/1 8/2/1 7/2/1
f 10/2/1 8/2/1 9/2/1
f 11/2/1 8/2/1 10/2/1
f 12/2/1 8/2/1 11/2/1
f 13/1/1 10/1/1 9/1/1
f 14/2/1 11/2/1 10/2/1
f 14/1/1 10/1/1 13/1/1
f 15/1/1 12/1/1 11/1/1
f 15/2/1 11/2/1 14/2/1
f 16/1/1 12/1/1 15/1/1
f 19/4/1 18/4/1 17/4/1
f 20/4/1 18/4/1 19/4/1
f 21/4/1 18/4/1 20/4/1
f 22/4/1 18/4/1 21/4/1
f 23/4/1 19/4/1 17/4/1
f 24/4/1 18/4/1 22/4/1
f 25/4/1 23/4/1 17/4/1
f 26/4/1 18/4/1 24/4/1
f 27/4/1 25/4/1 17/4/1
f 38/4/1 18/4/1 26/4/1
f 39/4/1 37/4/1 36/4/1
f 39/4/1 38/4/1 37/4/1
f 39/4/1 27/4/1 17/4/1
f 39/4/1 28/4/1 27/4/1
f 39/4/1 36/4/1 35/4/1
f 39/4/1 35/4/1 34/4/1
f 39/4/1 34/4/1 33/4/1
f 39/4/1 33/4/1 32/4/1
f 39/4/1 32/4/1 31/4/1
f 39/4/1 31/4/1 30/4/1
f 39/4/1 30/4/1 29/4/1
f 39/4/1 29/4/1 28/4/1
f 40/4/1 18/4/1 38/4/1
f 40/4/1 38/4/1 39/4/1
f 45/4/1 42/4/1 41/4/1
f 46/4/1 42/4/1 45/4/1
f 47/4/1 44/4/1 43/4/1
f 48/4/1 44/4/1 47/4/1
f 49/4/1 45/4/1 41/4/1
f 50/4/1 44/4/1 48/4/1
f 51/4/1 49/4/1 41/4/1
f 52/4/1 44/4/1 50/4/1
f 53/4/1 51/4/1 41/4/1
f 64/4/1 44/4/1 52/4/1
f 65/4/1 53/4/1 41/4/1
f 65/4/1 54/4/1 53/4/1
f 65/4/1 55/4/1 54/4/1
f 65/4/1 56/4/1 55/4/1
f 65/4/1 57/4/1 56/4/1
f 65/4/1 58/4/1 57/4/1
f 66/4/1 58/4/1 65/4/1
f 67/4/1 63/4/1 62/4/1
f 67/4/1 64/4/1 63/4/1
f 67/4/1 62/4/1 61/4/1
f 67/4/1 60/4/1 59/4/1
f 67/4/1 61/4/1 60/4/1
f 68/4/1 44/4/1 64/4/1
f 68/4/1 64/4/1 67/4/1
f 69/4/2 70/4/2 73/4/2
f 73/4/2 70/4/2 74/4/2
f 71/4/2 72/4/2 75/4/2
f 75/4/2 72/4/2 76/4/2
f 69/4/2 73/4/2 77/4/2
f 76/4/2 72/4/2 78/4/2
f 69/4/2 77/4/2 79/4/2
f 78/4/2 72/4/2 80/4/2
f 69/4/2 79/4/2 81/4/2
f 80/4/2 72/4/2 92/4/2
f 69/4/2 81/4/2 93/4/2
f 81/4/2 82/4/2 93/4/2
f 82/4/2 83/4/2 93/4/2
f 83/4/2 84/4/2 93/4/2
f 84/4/2 85/4/2 93/4/2
f 85/4/2 86/4/2 93/4/2
f 93/4/2 86/4/2 94/4/2
f 90/4/2 91/4/2 95/4/2
f 91/4/2 92/4/2 95/4/2
f 89/4/2 90/4/2 95/4/2
f 87/4/2 88/4/2 95/4/2
f 88/4/2 89/4/2 95/4/2
f 92/4/2 72/4/2 96/4/2
f 95/4/2 92/4/2 96/4/2
f 97/4/2 98/4/2 99/4/2
f 99/4/2 98/4/2 100/4/2
f 100/4/2 98/4/2 101/4/2
f 101/4/2 98/4/2 102/4/2
f 97/4/2 99/4/2 103/4/2
f 102/4/2 98/4/2 104/4/2
f 97/4/2 103/4/2 105/4/2
f 104/4/2 98/4/2 106/4/2
f 97/4/2 105/4/2 107/4/2
f 106/4/2 98/4/2 118/4/2
f 116/4/2 117/4/2 119/4/2
f 117/4/2 118/4/2 119/4/2
f 97/4/2 107/4/2 119/4/2
f 107/4/2 108/4/2 119/4/2
f 115/4/2 116/4/2 119/4/2
f 114/4/2 115/4/2 119/4/2
f 113/4/2 114/4/2 119/4/2
f 112/4/2 113/4/2 119/4/2
f 111/4/2 112/4/2 119/4/2
f 110/4/2 111/4/2 119/4/2
f 109/4/2 110/4/2 119/4/2
f 108/4/2 109/4/2 119/4/2
f 118/4/2 98/4/2 120/4/2
f 119/4/2 118/4/2 120/4/2
f 121/1/2 122/1/2 125/1/2
f 122/2/2 123/2/2 126/2/2
f 125/1/2 122/1/2 126/1/2
f 123/1/2 124/1/2 127/1/2
f 126/2/2 123/2/2 127/2/2
f 127/1/2 124/1/2 128/1/2
f 125/2/2 126/2/2 129/2/2
f 126/2/2 127/2/2 129/2/2
f 127/2/2 128/2/2 129/2/2
f 129/2/2 128/2/2 130/2/2
f 130/2/2 128/2/2 131/2/2
f 131/2/2 128/2/2 132/2/2
f 129/1/2 130/1/2 133/1/2
f 130/2/2 131/2/2 134/2/2
f 133/1/2 130/1/2 134/1/2
f 131/1/2 132/1/2 135/1/2
f 134/2/2 131/2/2 135/2/2
f 135/1/2 132/1/2 136/1/2
f 139/4/3 138/4/3 137/4/3
f 140/4/3 138/4/3 139/4/3
f 143/4/3 142/4/3 141/4/3
f 144/4/3 142/4/3 143/4/3
f 149/1/3 146/1/3 145/1/3
f 150/2/3 147/2/3 146/2/3
f 150/1/3 146/1/3 149/1/3
f 151/1/3 148/1/3 147/1/3
f 151/2/3 147/2/3 150/2/3
f 152/1/3 148/1/3 151/1/3
f 153/3/3 150/3/3 149/3/3
f 154/2/3 151/2/3 150/2/3
f 154/3/3 150/3/3 153/3/3
f 155/3/3 152/3/3 151/3/3
f 155/2/3 151/2/3 154/2/3
f 156/3/3 152/3/3 155/3/3
f 157/1/3 154/1/3 153/1/3
f 158/2/3 155/2/3 154/2/3
f 158/1/3 154/1/3 157/1/3
f 159/1/3 156/1/3 155/1/3
f 159/2/3 155/2/3 158/2/3
f 160/1/3 156/1/3 159/1/3
f 165/1/3 162/1/3 161/1/3
f 166/2/3 163/2/3 162/2/3
f 166/1/3 162/1/3 165/1/3
f 167/1/3 164/1/3 163/1/3
f 167/2/3 163/2/3 166/2/3
f 168/1/3 164/1/3 167/1/3
f 169/3/3 166/3/3 165/3/3
f 170/2/3 167/2/3 166/2/3
f 170/3/3 166/3/3 169/3/3
f 171/3/3 168/3/3 167/3/3
f 171/2/3 167/2/3 170/2/3
f 172/3/3 168/3/3 171/3/3
f 173/1/3 170/1/3 169/1/3
f 174/2/3 171/2/3 170/2/3
f 174/1/3 170/1/3 173/1/3
f 175/1/3 172/1/3 171/1/3
f 175/2/3 171/2/3 174/2/3
f 176/1/3 172/1/3 175/1/3
f 181/1/3 178/1/3 177/1/3
f 182/2/3 179/2/3 178/2/3
f 182/1/3 178/1/3 181/1/3
f 183/1/3 180/1/3 179/1/3
f 183/2/3 179/2/3 182/2/3
f 184/1/3 180/1/3 183/1/3
f 185/3/3 182/3/3 181/3/3
f 185/3/3 183/3/3 182/3/3
f 185/3/3 184/3/3 183/3/3
f 186/3/3 184/3/3 185/3/3
f 187/3/3 184/3/3 186/3/3
f 188/3/3 184/3/3 187/3/3
f 189/1/3 186/1/3 185/1/3
f 190/2/3 187/2/3 186/2/3
f 190/1/3 186/1/3 189/1/3
f 191/1/3 188/1/3 187/1/3
f 191/2/3 187/2/3 190/2/3
f 192/1/3 188/1/3 191/1/3
f 197/4/3 194/4/3 193/4/3
f 198/4/3 196/4/3 195/4/3
f 199/4/3 197/4/3 193/4/3
f 200/4/3 196/4/3 198/4/3
f 201/4/3 199/4/3 193/4/3
f 202/4/3 199/4/3 201/4/3
f 203/4/3 196/4/3 200/4/3
f 204/4/3 196/4/3 203/4/3
f 205/4/4 206/4/4 209/4/4
f 207/4/4 208/4/4 210/4/4
f 205/4/4 209/4/4 211/4/4
f 210/4/4 208/4/4 212/4/4
f 205/4/4 211/4/4 213/4/4
f 213/4/4 211/4/4 214/4/4
f 212/4/4 208/4/4 215/4/4
f 215/4/4 208/4/4 216/4/4
f 217/1/4 218/1/4 221/1/4
f 218/2/4 219/2/4 222/2/4
f 221/1/4 218/1/4 222/1/4
f 219/1/4 220/1/4 223/1/4
f 222/2/4 219/2/4 223/2/4
f 223/1/4 220/1/4 224/1/4
f 221/3/4 222/3/4 225/3/4
f 222/2/4 223/2/4 226/2/4
f 225/3/4 222/3/4 226/3/4
f 223/3/4 224/3/4 227/3/4
f 226/2/4 223/2/4 227/2/4
f 227/3/4 224/3/4 228/3/4
f 225/1/4 226/1/4 229/1/4
f 226/2/4 227/2/4 230/2/4
f 229/1/4 226/1/4 230/1/4
f 227/1/4 228/1/4 231/1/4
f 230/2/4 227/2/4 231/2/4
f 231/1/4 228/1/4 232/1/4
f 233/1/4 234/1/4 237/1/4
f 234/2/4 235/2/4 238/2/4
f 237/1/4 234/1/4 238/1/4
f 235/1/4 236/1/4 239/1/4
f 238/2/4 235/2/4 239/2/4
f 239/1/4 236/1/4 240/1/4
f 237/3/4 238/3/4 241/3/4
f 238/3/4 239/3/4 241/3/4
f 239/3/4 240/3/4 241/3/4
f 241/3/4 240/3/4 242/3/4
f 242/3/4 240/3/4 243/3/4
f 243/3/4 240/3/4 244/3/4
f 241/1/4 242/1/4 245/1/4
f 242/2/4 243/2/4 246/2/4
f 245/1/4 242/1/4 246/1/4
f 243/1/4 244/1/4 247/1/4
f 246/2/4 243/2/4 247/2/4
f 247/1/4 244/1/4 248/1/4
f 249/1/4 250/1/4 253/1/4
f 250/2/4 251/2/4 254/2/4
f 253/1/4 250/1/4 254/1/4
f 251/1/4 252/1/4 255/1/4
f 254/2/4 251/2/4 255/2/4
f 255/1/4 252/1/4 256/1/4
f 253/3/4 254/3/4 257/3/4
f 254/3/4 255/3/4 257/3/4
f 255/3/4 256/3/4 257/3/4
f 257/3/4 256/3/4 258/3/4
f 258/3/4 256/3/4 259/3/4
f 259/3/4 256/3/4 260/3/4
f 257/1/4 258/1/4 261/1/4
f 258/2/4 259/2/4 262/2/4
f 261/1/4 258/1/4 262/1/4
f 259/1/4 260/1/4 263/1/4
f 262/2/4 259/2/4 263/2/4
f 263/1/4 260/1/4 264/1/4
f 265/4/4 266/4/4 267/4/4
f 267/4/4 266/4/4 268/4/4
f 269/4/4 270/4/4 271/4/4
f 271/4/4 270/4/4 272/4/4
f 277/4/5 274/4/5 273/4/5
f 278/4/5 276/4/5 275/4/5
f 279/4/5 277/4/5 273/4/5
f 279/4/5 278/4/5 277/4/5
f 280/4/5 276/4/5 278/4/5
f 280/4/5 278/4/5 279/4/5
f 281/4/5 279/4/5 273/4/5
f 282/4/5 279/4/5 281/4/5
f 283/4/5 276/4/5 280/4/5
f 284/4/5 276/4/5 283/4/5
f 297/1/5 286/1/5 285/1/5
f 298/3/5 287/3/5 286/3/5
f 298/1/5 286/1/5 297/1/5
f 299/1/5 288/1/5 287/1/5
f 299/3/5 287/3/5 298/3/5
f 300/1/5 288/1/5 299/1/5
f 301/1/5 290/1/5 289/1/5
f 302/3/5 291/3/5 290/3/5
f 302/1/5 290/1/5 301/1/5
f 303/1/5 292/1/5 291/1/5
f 303/3/5 291/3/5 302/3/5
f 304/1/5 292/1/5 303/1/5
f 305/1/5 294/1/5 293/1/5
f 306/3/5 295/3/5 294/3/5
f 306/1/5 294/1/5 305/1/5
f 307/1/5 296/1/5 295/1/5
f 307/3/5 295/3/5 306/3/5
f 308/1/5 296/1/5 307/1/5
f 309/2/5 298/2/5 297/2/5
f 309/2/5 300/2/5 299/2/5
f 309/2/5 299/2/5 298/2/5
f 310/2/5 300/2/5 309/2/5
f 311/2/5 300/2/5 310/2/5
f 312/2/5 300/2/5 311/2/5
f 317/2/5 306/2/5 305/2/5
f 317/2/5 308/2/5 307/2/5
f 317/2/5 307/2/5 306/2/5
f 318/2/5 308/2/5 317/2/5
f 319/2/5 308/2/5 318/2/5
f 320/2/5 308/2/5 319/2/5
f 321/1/5 310/1/5 309/1/5
f 322/3/5 311/3/5 310/3/5
f 322/1/5 310/1/5 321/1/5
f 323/1/5 312/1/5 311/1/5
f 323/3/5 311/3/5 322/3/5
f 324/1/5 312/1/5 323/1/5
f 325/1/5 314/1/5 313/1/5
f 326/3/5 315/3/5 314/3/5
f 326/1/5 314/1/5 325/1/5
f 327/1/5 316/1/5 315/1/5
f 327/3/5 315/3/5 326/3/5
f 328/1/5 316/1/5 327/1/5
f 329/1/5 318/1/5 317/1/5
f 330/3/5 319/3/5 318/3/5
f 330/1/5 318/1/5 329/1/5
f 331/1/5 320/1/5 319/1/5
f 331/3/5 319/3/5 330/3/5
f 332/1/5 320/1/5 331/1/5
f 335/1/6 336/1/6 345/1/6
f 345/1/6 336/1/6 346/1/6
f 337/1/6 338/1/6 347/1/6
f 347/1/6 338/1/6 348/1/6
f 339/1/6 340/1/6 349/1/6
f 349/1/6 340/1/6 350/1/6
f 341/1/6 342/1/6 351/1/6
f 351/1/6 342/1/6 352/1/6
f 335/1/6 345/1/6 353/1/6
f 345/3/6 346/3/6 354/3/6
f 353/1/6 345/1/6 354/1/6
f 354/3/6 346/3/6 355/3/6
f 347/3/6 348/3/6 356/3/6
f 348/1/6 338/1/6 357/1/6
f 356/3/6 348/3/6 357/3/6
f 357/1/6 338/1/6 358/1/6
f 339/1/6 349/1/6 359/1/6
f 349/3/6 350/3/6 360/3/6
f 359/1/6 349/1/6 360/1/6
f 360/3/6 350/3/6 361/3/6
f 351/3/6 352/3/6 362/3/6
f 352/1/6 342/1/6 363/1/6
f 362/3/6 352/3/6 363/3/6
f 363/1/6 342/1/6 364/1/6
f 335/1/6 353/1/6 365/1/6
f 353/3/6 354/3/6 365/3/6
f 354/1/6 355/1/6 366/1/6
f 365/3/6 354/3/6 366/3/6
f 366/1/6 355/1/6 367/1/6
f 356/1/6 357/1/6 368/1/6
f 357/3/6 358/3/6 369/3/6
f 368/1/6 357/1/6 369/1/6
f 358/1/6 338/1/6 370/1/6
f 369/3/6 358/3/6 370/3/6
f 339/1/6 359/1/6 371/1/6
f 359/3/6 360/3/6 371/3/6
f 360/1/6 361/1/6 372/1/6
f 371/3/6 360/3/6 372/3/6
f 372/1/6 361/1/6 373/1/6
f 362/1/6 363/1/6 374/1/6
f 363/3/6 364/3/6 375/3/6
f 374/1/6 363/1/6 375/1/6
f 364/1/6 342/1/6 376/1/6
f 375/3/6 364/3/6 376/3/6
f 366/3/6 367/3/6 377/3/6
f 365/1/6 366/1/6 377/1/6
f 377/3/6 367/3/6 378/3/6
f 368/3/6 369/3/6 379/3/6
f 369/1/6 370/1/6 380/1/6
f 379/3/6 369/3/6 380/3/6
f 372/3/6 373/3/6 381/3/6
f 371/1/6 372/1/6 381/1/6
f 381/3/6 373/3/6 382/3/6
f 374/3/6 375/3/6 383/3/6
f 375/1/6 376/1/6 384/1/6
f 383/3/6 375/3/6 384/3/6
f 333/1/6 334/1/6 385/1/6
f 334/3/6 335/3/6 386/3/6
f 385/1/6 334/1/6 386/1/6
f 335/1/6 365/1/6 387/1/6
f 386/3/6 335/3/6 387/3/6
f 377/1/6 378/1/6 387/1/6
f 365/1/6 377/1/6 387/1/6
f 387/1/6 378/1/6 388/1/6
f 379/1/6 380/1/6 389/1/6
f 338/3/6 339/3/6 390/3/6
f 389/1/6 380/1/6 390/1/6
f 370/1/6 338/1/6 390/1/6
f 380/1/6 370/1/6 390/1/6
f 381/1/6 382/1/6 391/1/6
f 390/3/6 339/3/6 391/3/6
f 339/1/6 371/1/6 391/1/6
f 371/1/6 381/1/6 391/1/6
f 391/1/6 382/1/6 392/1/6
f 383/1/6 384/1/6 393/1/6
f 384/1/6 376/1/6 394/1/6
f 393/1/6 384/1/6 394/1/6
f 342/3/6 343/3/6 394/3/6
f 376/1/6 342/1/6 394/1/6
f 343/1/6 344/1/6 395/1/6
f 394/3/6 343/3/6 395/3/6
f 395/1/6 344/1/6 396/1/6
f 386/2/6 387/2/6 397/2/6
f 385/2/6 386/2/6 397/2/6
f 387/2/6 388/2/6 397/2/6
f 397/2/6 388/2/6 398/2/6
f 398/2/6 388/2/6 399/2/6
f 399/2/6 388/2/6 400/2/6
f 393/2/6 394/2/6 405/2/6
f 395/2/6 396/2/6 405/2/6
f 394/2/6 395/2/6 405/2/6
f 405/2/6 396/2/6 406/2/6
f 406/2/6 396/2/6 407/2/6
f 407/2/6 396/2/6 408/2/6
f 399/1/6 400/1/6 409/1/6
f 409/1/6 400/1/6 410/1/6
f 401/1/6 402/1/6 411/1/6
f 411/1/6 402/1/6 412/1/6
f 403/1/6 404/1/6 413/1/6
f 413/1/6 404/1/6 414/1/6
f 405/1/6 406/1/6 415/1/6
f 415/1/6 406/1/6 416/1/6
f 399/1/6 409/1/6 417/1/6
f 409/3/6 410/3/6 418/3/6
f 417/1/6 409/1/6 418/1/6
f 418/3/6 410/3/6 419/3/6
f 411/3/6 412/3/6 420/3/6
f 412/1/6 402/1/6 421/1/6
f 420/3/6 412/3/6 421/3/6
f 421/1/6 402/1/6 422/1/6
f 403/1/6 413/1/6 423/1/6
f 413/3/6 414/3/6 424/3/6
f 423/1/6 413/1/6 424/1/6
f 424/3/6 414/3/6 425/3/6
f 415/3/6 416/3/6 426/3/6
f 416/1/6 406/1/6 427/1/6
f 426/3/6 416/3/6 427/3/6
f 427/1/6 406/1/6 428/1/6
f 399/1/6 417/1/6 429/1/6
f 417/3/6 418/3/6 429/3/6
f 418/1/6 419/1/6 430/1/6
f 429/3/6 418/3/6 430/3/6
f 430/1/6 419/1/6 431/1/6
f 420/1/6 421/1/6 432/1/6
f 421/3/6 422/3/6 433/3/6
f 432/1/6 421/1/6 433/1/6
f 422/1/6 402/1/6 434/1/6
f 433/3/6 422/3/6 434/3/6
f 403/1/6 423/1/6 435/1/6
f 423/3/6 424/3/6 435/3/6
f 424/1/6 425/1/6 436/1/6
f 435/3/6 424/3/6 436/3/6
f 436/1/6 425/1/6 437/1/6
f 426/1/6 427/1/6 438/1/6
f 427/3/6 428/3/6 439/3/6
f 438/1/6 427/1/6 439/1/6
f 428/1/6 406/1/6 440/1/6
f 439/3/6 428/3/6 440/3/6
f 430/3/6 431/3/6 441/3/6
f 429/1/6 430/1/6 441/1/6
f 441/3/6 431/3/6 442/3/6
f 432/3/6 433/3/6 443/3/6
f 433/1/6 434/1/6 444/1/6
f 443/3/6 433/3/6 444/3/6
f 436/3/6 437/3/6 445/3/6
f 435/1/6 436/1/6 445/1/6
f 445/3/6 437/3/6 446/3/6
f 438/3/6 439/3/6 447/3/6
f 439/1/6 440/1/6 448/1/6
f 447/3/6 439/3/6 448/3/6
f 397/1/6 398/1/6 449/1/6
f 398/3/6 399/3/6 450/3/6
f 449/1/6 398/1/6 450/1/6
f 399/1/6 429/1/6 451/1/6
f 450/3/6 399/3/6 451/3/6
f 441/1/6 442/1/6 451/1/6
f 429/1/6 441/1/6 451/1/6
f 451/1/6 442/1/6 452/1/6
f 443/1/6 444/1/6 453/1/6
f 402/3/6 403/3/6 454/3/6
f 453/1/6 444/1/6 454/1/6
f 434/1/6 402/1/6 454/1/6
f 444/1/6 434/1/6 454/1/6
f 445/1/6 446/1/6 455/1/6
f 454/3/6 403/3/6 455/3/6
f 403/1/6 435/1/6 455/1/6
f 435/1/6 445/1/6 455/1/6
f 455/1/6 446/1/6 456/1/6
f 447/1/6 448/1/6 457/1/6
f 448/1/6 440/1/6 458/1/6
f 457/1/6 448/1/6 458/1/6
f 406/3/6 407/3/6 458/3/6
f 440/1/6 406/1/6 458/1/6
f 407/1/6 408/1/6 459/1/6
f 458/3/6 407/3/6 459/3/6
f 459/1/6 408/1/6 460/1/6
f 461/4/6 462/4/6 465/4/6
f 463/4/6 464/4/6 466/4/6
f 461/4/6 465/4/6 467/4/6
f 465/4/6 466/4/6 467/4/6
f 466/4/6 464/4/6 468/4/6
f 467/4/6 466/4/6 468/4/6
f 461/4/6 467/4/6 469/4/6
f 469/4/6 467/4/6 470/4/6
f 468/4/6 464/4/6 471/4/6
f 471/4/6 464/4/6 472/4/6
