# MagicaVoxel @ Ephtracy

# group
o 

# material
mtllib pig-2.mtl
usemtl palette

# normals
vn -1 0 0
vn 1 0 0
vn 0 0 1
vn 0 0 -1
vn 0 -1 0
vn 0 1 0

# texcoords
vt 0.0371094 0.5
vt 0.0449219 0.5
vt 0.912109 0.5
vt 0.958984 0.5
vt 0.994141 0.5

# verts
v -1.4 1.9 0.8
v -1.4 1.9 0.6
v -1.4 2.3 0.8
v -1.4 2.3 0.6
v -1.3 1.8 0.8
v -1.3 1.8 0.5
v -1.3 1.9 0.8
v -1.3 1.9 0.6
v -1.3 2.3 0.8
v -1.3 2.3 0.6
v -1.3 2.4 0.8
v -1.3 2.4 0.5
v -1.1 0.1 0.8
v -1.1 0.1 -2
v -1.1 1.8 0.8
v -1.1 1.8 0.5
v -1.1 2 0.5
v -1.1 2 -2
v -0.9 1.9 0.8
v -0.9 1.9 0.7
v -0.9 2.3 0.8
v -0.9 2.3 0.7
v -0.7 1.2 0.9
v -0.7 1.2 0.8
v -0.7 1.3 0.9
v -0.7 1.3 0.8
v -0.7 1.5 0.9
v -0.7 1.5 0.8
v -0.7 1.7 0.9
v -0.7 1.7 0.8
v -0.3 0.4 0.8
v -0.3 0.4 0.7
v -0.3 0.5 0.8
v -0.3 0.5 0.7
v -0.3 0.7 1
v -0.3 0.7 0.8
v -0.3 1.1 1
v -0.3 1.1 0.8
v -0.1 0.8 1
v -0.1 0.8 0.8
v -0.1 1 1
v -0.1 1 0.8
v 0.2 0.8 1
v 0.2 0.8 0.8
v 0.2 1 1
v 0.2 1 0.8
v 0.2 1.2 0.9
v 0.2 1.2 0.8
v 0.2 1.3 0.9
v 0.2 1.3 0.8
v 0.2 1.5 0.9
v 0.2 1.5 0.8
v 0.2 1.7 0.9
v 0.2 1.7 0.8
v 0.3 0.3 0.8
v 0.3 0.3 0.7
v 0.3 0.4 0.8
v 0.3 0.4 0.7
v 0.4 0.4 0.8
v 0.4 0.4 0.7
v 0.4 0.5 0.8
v 0.4 0.5 0.7
v 0.9 2 0.8
v 0.9 2 0.6
v 0.9 2.3 0.8
v 0.9 2.3 0.6
v 1 2 0.6
v 1 2 0.5
v 1 2.3 0.8
v 1 2.3 0.6
v 1 2.4 0.8
v 1 2.4 0.5
v 1.4 1.9 0.8
v 1.4 1.9 0.7
v 1.4 2.3 0.8
v 1.4 2.3 0.7
v -1.3 1.9 0.8
v -1.3 1.9 0.7
v -1.3 2.3 0.8
v -1.3 2.3 0.7
v -0.9 2 0.6
v -0.9 2 0.5
v -0.9 2.3 0.8
v -0.9 2.3 0.6
v -0.9 2.4 0.8
v -0.9 2.4 0.5
v -0.8 2 0.8
v -0.8 2 0.6
v -0.8 2.3 0.8
v -0.8 2.3 0.6
v -0.4 0.4 0.8
v -0.4 0.4 0.7
v -0.4 0.5 0.8
v -0.4 0.5 0.7
v -0.3 0.3 0.8
v -0.3 0.3 0.7
v -0.3 0.4 0.8
v -0.3 0.4 0.7
v -0.2 0.8 1
v -0.2 0.8 0.8
v -0.2 1 1
v -0.2 1 0.8
v -0.2 1.2 0.9
v -0.2 1.2 0.8
v -0.2 1.5 0.9
v -0.2 1.5 0.8
v -0.2 1.7 0.9
v -0.2 1.7 0.8
v 0.1 0.8 1
v 0.1 0.8 0.8
v 0.1 1 1
v 0.1 1 0.8
v 0.3 0.4 0.8
v 0.3 0.4 0.7
v 0.3 0.5 0.8
v 0.3 0.5 0.7
v 0.3 0.7 1
v 0.3 0.7 0.8
v 0.3 1.1 1
v 0.3 1.1 0.8
v 0.7 1.2 0.9
v 0.7 1.2 0.8
v 0.7 1.3 0.9
v 0.7 1.3 0.8
v 0.7 1.5 0.9
v 0.7 1.5 0.8
v 0.7 1.7 0.9
v 0.7 1.7 0.8
v 1 1.9 0.8
v 1 1.9 0.7
v 1 2.3 0.8
v 1 2.3 0.7
v 1.1 0.1 0.8
v 1.1 0.1 -2
v 1.1 1.8 0.8
v 1.1 1.8 0.7
v 1.1 1.9 0.7
v 1.1 1.9 0.6
v 1.1 1.9 0.5
v 1.1 2 0.5
v 1.1 2 -2
v 1.4 1.8 0.8
v 1.4 1.8 0.7
v 1.4 1.9 0.8
v 1.4 1.9 0.7
v 1.4 1.9 0.6
v 1.4 1.9 0.5
v 1.4 2.3 0.8
v 1.4 2.3 0.6
v 1.4 2.4 0.8
v 1.4 2.4 0.5
v 1.5 1.9 0.8
v 1.5 1.9 0.6
v 1.5 2.3 0.8
v 1.5 2.3 0.6
v -0.3 0.7 1
v -0.3 1.1 1
v -0.2 0.8 1
v -0.2 1 1
v -0.1 0.8 1
v -0.1 1 1
v 0.1 0.8 1
v 0.1 1 1
v 0.2 0.8 1
v 0.2 1 1
v 0.3 0.7 1
v 0.3 1.1 1
v -0.7 1.2 0.9
v -0.7 1.3 0.9
v -0.7 1.5 0.9
v -0.7 1.7 0.9
v -0.4 1.3 0.9
v -0.4 1.5 0.9
v -0.2 1.2 0.9
v -0.2 1.5 0.9
v -0.2 1.7 0.9
v 0.2 1.2 0.9
v 0.2 1.3 0.9
v 0.2 1.5 0.9
v 0.2 1.7 0.9
v 0.5 1.3 0.9
v 0.5 1.5 0.9
v 0.7 1.2 0.9
v 0.7 1.3 0.9
v 0.7 1.5 0.9
v 0.7 1.7 0.9
v -1.4 1.9 0.8
v -1.4 2.3 0.8
v -1.3 1.8 0.8
v -1.3 1.9 0.8
v -1.3 2.3 0.8
v -1.3 2.4 0.8
v -1.1 0.1 0.8
v -1.1 1.8 0.8
v -0.9 1.9 0.8
v -0.9 2.3 0.8
v -0.9 2.4 0.8
v -0.8 2 0.8
v -0.8 2.3 0.8
v -0.7 1.2 0.8
v -0.7 1.3 0.8
v -0.7 1.5 0.8
v -0.7 1.7 0.8
v -0.4 0.4 0.8
v -0.4 0.5 0.8
v -0.3 0.3 0.8
v -0.3 0.4 0.8
v -0.3 0.5 0.8
v -0.3 0.7 0.8
v -0.3 1.1 0.8
v -0.2 0.8 0.8
v -0.2 1 0.8
v -0.2 1.2 0.8
v -0.2 1.5 0.8
v -0.2 1.7 0.8
v -0.1 0.8 0.8
v -0.1 1 0.8
v 0.1 0.8 0.8
v 0.1 1 0.8
v 0.2 0.8 0.8
v 0.2 1 0.8
v 0.2 1.2 0.8
v 0.2 1.3 0.8
v 0.2 1.5 0.8
v 0.2 1.7 0.8
v 0.3 0.3 0.8
v 0.3 0.4 0.8
v 0.3 0.5 0.8
v 0.3 0.7 0.8
v 0.3 1.1 0.8
v 0.4 0.4 0.8
v 0.4 0.5 0.8
v 0.7 1.2 0.8
v 0.7 1.3 0.8
v 0.7 1.5 0.8
v 0.7 1.7 0.8
v 0.9 2 0.8
v 0.9 2.3 0.8
v 1 1.9 0.8
v 1 2.3 0.8
v 1 2.4 0.8
v 1.1 0.1 0.8
v 1.1 1.8 0.8
v 1.4 1.8 0.8
v 1.4 1.9 0.8
v 1.4 2.3 0.8
v 1.4 2.4 0.8
v 1.5 1.9 0.8
v 1.5 2.3 0.8
v -1.3 1.9 0.7
v -1.3 2.3 0.7
v -0.9 1.9 0.7
v -0.9 2.3 0.7
v -0.4 0.4 0.7
v -0.4 0.5 0.7
v -0.3 0.3 0.7
v -0.3 0.4 0.7
v -0.3 0.5 0.7
v 0.3 0.3 0.7
v 0.3 0.4 0.7
v 0.3 0.5 0.7
v 0.4 0.4 0.7
v 0.4 0.5 0.7
v 1 1.9 0.7
v 1 2.3 0.7
v 1.4 1.9 0.7
v 1.4 2.3 0.7
v 1.1 1.8 0.7
v 1.1 1.9 0.7
v 1.4 1.8 0.7
v 1.4 1.9 0.7
v -1.4 1.9 0.6
v -1.4 2.3 0.6
v -1.3 1.9 0.6
v -1.3 2.3 0.6
v -0.9 2 0.6
v -0.9 2.3 0.6
v -0.8 2 0.6
v -0.8 2.3 0.6
v 0.9 2 0.6
v 0.9 2.3 0.6
v 1 2 0.6
v 1 2.3 0.6
v 1.4 1.9 0.6
v 1.4 2.3 0.6
v 1.5 1.9 0.6
v 1.5 2.3 0.6
v -1.3 1.8 0.5
v -1.3 2.4 0.5
v -1.1 1.8 0.5
v -1.1 2 0.5
v -0.9 2 0.5
v -0.9 2.4 0.5
v 1 2 0.5
v 1 2.4 0.5
v 1.1 1.9 0.5
v 1.1 2 0.5
v 1.4 1.9 0.5
v 1.4 2.4 0.5
v -1.1 0.1 -2
v -1.1 2 -2
v 1.1 0.1 -2
v 1.1 2 -2
v -1.1 0.1 0.8
v 1.1 0.1 0.8
v -1.1 0.1 -2
v 1.1 0.1 -2
v -0.3 0.4 0.8
v 0.3 0.4 0.8
v -0.3 0.4 0.7
v 0.3 0.4 0.7
v -0.4 0.5 0.8
v -0.3 0.5 0.8
v 0.3 0.5 0.8
v 0.4 0.5 0.8
v -0.4 0.5 0.7
v -0.3 0.5 0.7
v 0.3 0.5 0.7
v 0.4 0.5 0.7
v -0.3 0.7 1
v 0.3 0.7 1
v -0.3 0.7 0.8
v 0.3 0.7 0.8
v -0.2 1 1
v -0.1 1 1
v 0.1 1 1
v 0.2 1 1
v -0.2 1 0.8
v -0.1 1 0.8
v 0.1 1 0.8
v 0.2 1 0.8
v -0.7 1.2 0.9
v -0.2 1.2 0.9
v 0.2 1.2 0.9
v 0.7 1.2 0.9
v -0.7 1.2 0.8
v -0.2 1.2 0.8
v 0.2 1.2 0.8
v 0.7 1.2 0.8
v -1.3 1.8 0.8
v -1.1 1.8 0.8
v 1.1 1.8 0.8
v 1.4 1.8 0.8
v 1.1 1.8 0.7
v 1.4 1.8 0.7
v -1.3 1.8 0.5
v -1.1 1.8 0.5
v -1.4 1.9 0.8
v -1.3 1.9 0.8
v 1.4 1.9 0.8
v 1.5 1.9 0.8
v 1.1 1.9 0.7
v 1.4 1.9 0.7
v -1.4 1.9 0.6
v -1.3 1.9 0.6
v 1.1 1.9 0.6
v 1.4 1.9 0.6
v 1.5 1.9 0.6
v 1.1 1.9 0.5
v 1.4 1.9 0.5
v -1.3 2.3 0.8
v -0.9 2.3 0.8
v 1 2.3 0.8
v 1.4 2.3 0.8
v -1.3 2.3 0.7
v -0.9 2.3 0.7
v 1 2.3 0.7
v 1.4 2.3 0.7
v -0.3 0.3 0.8
v 0.3 0.3 0.8
v -0.3 0.3 0.7
v 0.3 0.3 0.7
v -0.4 0.4 0.8
v -0.3 0.4 0.8
v 0.3 0.4 0.8
v 0.4 0.4 0.8
v -0.4 0.4 0.7
v -0.3 0.4 0.7
v 0.3 0.4 0.7
v 0.4 0.4 0.7
v -0.2 0.8 1
v -0.1 0.8 1
v 0.1 0.8 1
v 0.2 0.8 1
v -0.2 0.8 0.8
v -0.1 0.8 0.8
v 0.1 0.8 0.8
v 0.2 0.8 0.8
v -0.3 1.1 1
v 0.3 1.1 1
v -0.3 1.1 0.8
v 0.3 1.1 0.8
v -0.7 1.7 0.9
v -0.2 1.7 0.9
v 0.2 1.7 0.9
v 0.7 1.7 0.9
v -0.7 1.7 0.8
v -0.2 1.7 0.8
v 0.2 1.7 0.8
v 0.7 1.7 0.8
v -1.3 1.9 0.8
v -0.9 1.9 0.8
v 1 1.9 0.8
v 1.4 1.9 0.8
v -1.3 1.9 0.7
v -0.9 1.9 0.7
v 1 1.9 0.7
v 1.4 1.9 0.7
v -0.8 2 0.8
v 0.9 2 0.8
v -0.9 2 0.6
v -0.8 2 0.6
v 0.9 2 0.6
v 1 2 0.6
v -1.1 2 0.5
v -0.9 2 0.5
v 1 2 0.5
v 1.1 2 0.5
v -1.1 2 -2
v 1.1 2 -2
v -1.4 2.3 0.8
v -1.3 2.3 0.8
v -0.9 2.3 0.8
v -0.8 2.3 0.8
v 0.9 2.3 0.8
v 1 2.3 0.8
v 1.4 2.3 0.8
v 1.5 2.3 0.8
v -1.4 2.3 0.6
v -1.3 2.3 0.6
v -0.9 2.3 0.6
v -0.8 2.3 0.6
v 0.9 2.3 0.6
v 1 2.3 0.6
v 1.4 2.3 0.6
v 1.5 2.3 0.6
v -1.3 2.4 0.8
v -0.9 2.4 0.8
v 1 2.4 0.8
v 1.4 2.4 0.8
v -1.3 2.4 0.5
v -0.9 2.4 0.5
v 1 2.4 0.5
v 1.4 2.4 0.5

# faces
f 3/1/1 2/1/1 1/1/1
f 4/1/1 2/1/1 3/1/1
f 7/1/1 6/1/1 5/1/1
f 8/1/1 6/1/1 7/1/1
f 10/1/1 6/1/1 8/1/1
f 11/1/1 10/1/1 9/1/1
f 12/1/1 6/1/1 10/1/1
f 12/1/1 10/1/1 11/1/1
f 15/1/1 14/1/1 13/1/1
f 16/1/1 14/1/1 15/1/1
f 17/1/1 14/1/1 16/1/1
f 18/1/1 14/1/1 17/1/1
f 21/1/1 20/1/1 19/1/1
f 22/1/1 20/1/1 21/1/1
f 25/3/1 24/3/1 23/3/1
f 26/3/1 24/3/1 25/3/1
f 27/5/1 26/5/1 25/5/1
f 28/5/1 26/5/1 27/5/1
f 29/1/1 28/1/1 27/1/1
f 30/1/1 28/1/1 29/1/1
f 33/1/1 32/1/1 31/1/1
f 34/1/1 32/1/1 33/1/1
f 37/2/1 36/2/1 35/2/1
f 38/2/1 36/2/1 37/2/1
f 41/2/1 40/2/1 39/2/1
f 42/2/1 40/2/1 41/2/1
f 45/2/1 44/2/1 43/2/1
f 46/2/1 44/2/1 45/2/1
f 49/3/1 48/3/1 47/3/1
f 50/3/1 48/3/1 49/3/1
f 51/5/1 50/5/1 49/5/1
f 52/5/1 50/5/1 51/5/1
f 53/1/1 52/1/1 51/1/1
f 54/1/1 52/1/1 53/1/1
f 57/1/1 56/1/1 55/1/1
f 58/1/1 56/1/1 57/1/1
f 61/1/1 60/1/1 59/1/1
f 62/1/1 60/1/1 61/1/1
f 65/1/1 64/1/1 63/1/1
f 66/1/1 64/1/1 65/1/1
f 70/1/1 68/1/1 67/1/1
f 71/1/1 70/1/1 69/1/1
f 72/1/1 68/1/1 70/1/1
f 72/1/1 70/1/1 71/1/1
f 75/1/1 74/1/1 73/1/1
f 76/1/1 74/1/1 75/1/1
f 77/1/2 78/1/2 79/1/2
f 79/1/2 78/1/2 80/1/2
f 81/1/2 82/1/2 84/1/2
f 83/1/2 84/1/2 85/1/2
f 84/1/2 82/1/2 86/1/2
f 85/1/2 84/1/2 86/1/2
f 87/1/2 88/1/2 89/1/2
f 89/1/2 88/1/2 90/1/2
f 91/1/2 92/1/2 93/1/2
f 93/1/2 92/1/2 94/1/2
f 95/1/2 96/1/2 97/1/2
f 97/1/2 96/1/2 98/1/2
f 99/2/2 100/2/2 101/2/2
f 101/2/2 100/2/2 102/2/2
f 103/3/2 104/3/2 105/3/2
f 105/3/2 104/3/2 106/3/2
f 105/1/2 106/1/2 107/1/2
f 107/1/2 106/1/2 108/1/2
f 109/2/2 110/2/2 111/2/2
f 111/2/2 110/2/2 112/2/2
f 113/1/2 114/1/2 115/1/2
f 115/1/2 114/1/2 116/1/2
f 117/2/2 118/2/2 119/2/2
f 119/2/2 118/2/2 120/2/2
f 121/3/2 122/3/2 123/3/2
f 123/3/2 122/3/2 124/3/2
f 123/4/2 124/4/2 125/4/2
f 125/4/2 124/4/2 126/4/2
f 125/1/2 126/1/2 127/1/2
f 127/1/2 126/1/2 128/1/2
f 129/1/2 130/1/2 131/1/2
f 131/1/2 130/1/2 132/1/2
f 133/1/2 134/1/2 135/1/2
f 135/1/2 134/1/2 136/1/2
f 136/1/2 134/1/2 137/1/2
f 137/1/2 134/1/2 138/1/2
f 138/1/2 134/1/2 139/1/2
f 139/1/2 134/1/2 140/1/2
f 140/1/2 134/1/2 141/1/2
f 142/1/2 143/1/2 144/1/2
f 144/1/2 143/1/2 145/1/2
f 146/1/2 147/1/2 149/1/2
f 148/1/2 149/1/2 150/1/2
f 149/1/2 147/1/2 151/1/2
f 150/1/2 149/1/2 151/1/2
f 152/1/2 153/1/2 154/1/2
f 154/1/2 153/1/2 155/1/2
f 158/2/3 157/2/3 156/2/3
f 159/2/3 157/2/3 158/2/3
f 160/2/3 158/2/3 156/2/3
f 161/2/3 157/2/3 159/2/3
f 162/2/3 160/2/3 156/2/3
f 162/2/3 161/2/3 160/2/3
f 163/2/3 157/2/3 161/2/3
f 163/2/3 161/2/3 162/2/3
f 164/2/3 162/2/3 156/2/3
f 165/2/3 157/2/3 163/2/3
f 166/2/3 164/2/3 156/2/3
f 166/2/3 165/2/3 164/2/3
f 167/2/3 157/2/3 165/2/3
f 167/2/3 165/2/3 166/2/3
f 172/3/3 169/3/3 168/3/3
f 172/5/3 170/5/3 169/5/3
f 173/1/3 171/1/3 170/1/3
f 173/5/3 170/5/3 172/5/3
f 174/3/3 172/3/3 168/3/3
f 174/3/3 173/3/3 172/3/3
f 175/1/3 171/1/3 173/1/3
f 175/3/3 173/3/3 174/3/3
f 176/1/3 171/1/3 175/1/3
f 181/3/3 178/3/3 177/3/3
f 181/5/3 179/5/3 178/5/3
f 182/1/3 180/1/3 179/1/3
f 182/5/3 179/5/3 181/5/3
f 183/3/3 181/3/3 177/3/3
f 184/4/3 182/4/3 181/4/3
f 184/3/3 181/3/3 183/3/3
f 185/1/3 180/1/3 182/1/3
f 185/4/3 182/4/3 184/4/3
f 186/1/3 180/1/3 185/1/3
f 190/1/3 188/1/3 187/1/3
f 191/1/3 188/1/3 190/1/3
f 194/1/3 190/1/3 189/1/3
f 195/1/3 190/1/3 194/1/3
f 195/1/3 194/1/3 193/1/3
f 196/1/3 192/1/3 191/1/3
f 197/1/3 192/1/3 196/1/3
f 198/1/3 196/1/3 195/1/3
f 199/1/3 196/1/3 198/1/3
f 200/1/3 195/1/3 193/1/3
f 200/1/3 198/1/3 195/1/3
f 201/1/3 198/1/3 200/1/3
f 202/1/3 198/1/3 201/1/3
f 203/1/3 198/1/3 202/1/3
f 204/1/3 200/1/3 193/1/3
f 205/1/3 200/1/3 204/1/3
f 206/1/3 204/1/3 193/1/3
f 207/1/3 204/1/3 206/1/3
f 208/1/3 200/1/3 205/1/3
f 209/1/3 200/1/3 208/1/3
f 210/1/3 200/1/3 209/1/3
f 213/1/3 200/1/3 210/1/3
f 215/1/3 198/1/3 203/1/3
f 216/5/3 212/5/3 211/5/3
f 217/5/3 212/5/3 216/5/3
f 220/5/3 219/5/3 218/5/3
f 221/5/3 219/5/3 220/5/3
f 222/1/3 214/1/3 213/1/3
f 222/1/3 215/1/3 214/1/3
f 222/1/3 213/1/3 210/1/3
f 223/1/3 215/1/3 222/1/3
f 224/1/3 215/1/3 223/1/3
f 225/1/3 198/1/3 215/1/3
f 225/1/3 215/1/3 224/1/3
f 226/1/3 206/1/3 193/1/3
f 227/1/3 208/1/3 207/1/3
f 227/1/3 209/1/3 208/1/3
f 228/1/3 209/1/3 227/1/3
f 229/1/3 209/1/3 228/1/3
f 230/1/3 222/1/3 210/1/3
f 231/1/3 227/1/3 226/1/3
f 232/1/3 229/1/3 228/1/3
f 232/1/3 230/1/3 229/1/3
f 233/1/3 222/1/3 230/1/3
f 233/1/3 232/1/3 231/1/3
f 233/1/3 230/1/3 232/1/3
f 236/1/3 198/1/3 225/1/3
f 237/1/3 235/1/3 234/1/3
f 237/1/3 236/1/3 235/1/3
f 237/1/3 198/1/3 236/1/3
f 237/1/3 234/1/3 233/1/3
f 239/1/3 237/1/3 233/1/3
f 239/1/3 238/1/3 237/1/3
f 240/1/3 238/1/3 239/1/3
f 242/1/3 231/1/3 226/1/3
f 242/1/3 239/1/3 233/1/3
f 242/1/3 233/1/3 231/1/3
f 242/1/3 226/1/3 193/1/3
f 243/1/3 239/1/3 242/1/3
f 244/1/3 239/1/3 243/1/3
f 245/1/3 239/1/3 244/1/3
f 246/1/3 241/1/3 240/1/3
f 247/1/3 241/1/3 246/1/3
f 248/1/3 246/1/3 245/1/3
f 249/1/3 246/1/3 248/1/3
f 252/5/3 251/5/3 250/5/3
f 253/5/3 251/5/3 252/5/3
f 257/1/3 255/1/3 254/1/3
f 258/1/3 255/1/3 257/1/3
f 259/4/3 257/4/3 256/4/3
f 260/4/3 257/4/3 259/4/3
f 262/1/3 261/1/3 260/1/3
f 263/1/3 261/1/3 262/1/3
f 266/5/3 265/5/3 264/5/3
f 267/5/3 265/5/3 266/5/3
f 268/1/4 269/1/4 270/1/4
f 270/1/4 269/1/4 271/1/4
f 272/1/4 273/1/4 274/1/4
f 274/1/4 273/1/4 275/1/4
f 276/1/4 277/1/4 278/1/4
f 278/1/4 277/1/4 279/1/4
f 280/1/4 281/1/4 282/1/4
f 282/1/4 281/1/4 283/1/4
f 284/1/4 285/1/4 286/1/4
f 286/1/4 285/1/4 287/1/4
f 288/1/4 289/1/4 290/1/4
f 290/1/4 289/1/4 291/1/4
f 291/1/4 289/1/4 292/1/4
f 292/1/4 289/1/4 293/1/4
f 294/1/4 295/1/4 297/1/4
f 296/1/4 297/1/4 298/1/4
f 297/1/4 295/1/4 299/1/4
f 298/1/4 297/1/4 299/1/4
f 300/1/4 301/1/4 302/1/4
f 302/1/4 301/1/4 303/1/4
f 306/1/5 305/1/5 304/1/5
f 307/1/5 305/1/5 306/1/5
f 310/1/5 309/1/5 308/1/5
f 311/1/5 309/1/5 310/1/5
f 316/1/5 313/1/5 312/1/5
f 317/1/5 313/1/5 316/1/5
f 318/1/5 315/1/5 314/1/5
f 319/1/5 315/1/5 318/1/5
f 322/2/5 321/2/5 320/2/5
f 323/2/5 321/2/5 322/2/5
f 328/2/5 325/2/5 324/2/5
f 329/2/5 325/2/5 328/2/5
f 330/2/5 327/2/5 326/2/5
f 331/2/5 327/2/5 330/2/5
f 336/3/5 333/3/5 332/3/5
f 337/3/5 333/3/5 336/3/5
f 338/3/5 335/3/5 334/3/5
f 339/3/5 335/3/5 338/3/5
f 344/1/5 343/1/5 342/1/5
f 345/1/5 343/1/5 344/1/5
f 346/1/5 341/1/5 340/1/5
f 347/1/5 341/1/5 346/1/5
f 353/1/5 351/1/5 350/1/5
f 354/1/5 349/1/5 348/1/5
f 355/1/5 349/1/5 354/1/5
f 356/5/5 353/5/5 352/5/5
f 357/1/5 351/1/5 353/1/5
f 357/5/5 353/5/5 356/5/5
f 358/1/5 351/1/5 357/1/5
f 359/1/5 357/1/5 356/1/5
f 360/1/5 357/1/5 359/1/5
f 365/1/5 362/1/5 361/1/5
f 366/1/5 362/1/5 365/1/5
f 367/1/5 364/1/5 363/1/5
f 368/1/5 364/1/5 367/1/5
f 369/1/6 370/1/6 371/1/6
f 371/1/6 370/1/6 372/1/6
f 373/1/6 374/1/6 377/1/6
f 377/1/6 374/1/6 378/1/6
f 375/1/6 376/1/6 379/1/6
f 379/1/6 376/1/6 380/1/6
f 381/2/6 382/2/6 385/2/6
f 385/2/6 382/2/6 386/2/6
f 383/2/6 384/2/6 387/2/6
f 387/2/6 384/2/6 388/2/6
f 389/2/6 390/2/6 391/2/6
f 391/2/6 390/2/6 392/2/6
f 393/1/6 394/1/6 397/1/6
f 397/1/6 394/1/6 398/1/6
f 395/1/6 396/1/6 399/1/6
f 399/1/6 396/1/6 400/1/6
f 401/1/6 402/1/6 405/1/6
f 405/1/6 402/1/6 406/1/6
f 403/1/6 404/1/6 407/1/6
f 407/1/6 404/1/6 408/1/6
f 409/1/6 410/1/6 412/1/6
f 412/1/6 410/1/6 413/1/6
f 411/1/6 412/1/6 416/1/6
f 413/1/6 414/1/6 416/1/6
f 412/1/6 413/1/6 416/1/6
f 416/1/6 414/1/6 417/1/6
f 415/1/6 416/1/6 419/1/6
f 417/1/6 418/1/6 419/1/6
f 416/1/6 417/1/6 419/1/6
f 419/1/6 418/1/6 420/1/6
f 421/1/6 422/1/6 429/1/6
f 429/1/6 422/1/6 430/1/6
f 423/1/6 424/1/6 431/1/6
f 431/1/6 424/1/6 432/1/6
f 425/1/6 426/1/6 433/1/6
f 433/1/6 426/1/6 434/1/6
f 427/1/6 428/1/6 435/1/6
f 435/1/6 428/1/6 436/1/6
f 437/1/6 438/1/6 441/1/6
f 441/1/6 438/1/6 442/1/6
f 439/1/6 440/1/6 443/1/6
f 443/1/6 440/1/6 444/1/6
