# MagicaVoxel @ Ephtracy

# group
o 

# material
mtllib RaodP5.mtl
usemtl palette

# normals
vn -1 0 0
vn 1 0 0
vn 0 0 1
vn 0 0 -1
vn 0 -1 0
vn 0 1 0

# texcoords
vt 0.00976563 0.5
vt 0.0917969 0.5
vt 0.123047 0.5

# verts
v -1.1 0.3 1.1
v -1.1 0.3 -1.5
v -1.1 0.4 1.1
v -1.1 0.4 -1.5
v 1.1 0.3 -1.1
v 1.1 0.3 -1.5
v 1.1 0.4 -1.1
v 1.1 0.4 -1.5
v 1.5 0.3 1.1
v 1.5 0.3 0.9
v 1.5 0.3 -0.9
v 1.5 0.3 -1.1
v 1.5 0.4 1.1
v 1.5 0.4 0.9
v 1.5 0.4 -0.9
v 1.5 0.4 -1.1
v -1.1 0.3 1.1
v -1.1 0.4 1.1
v 1.5 0.3 1.1
v 1.5 0.4 1.1
v 1.1 0.3 -1.1
v 1.1 0.4 -1.1
v 1.5 0.3 -1.1
v 1.5 0.4 -1.1
v -1.1 0.3 -1.5
v -1.1 0.4 -1.5
v -0.9 0.3 -1.5
v -0.9 0.4 -1.5
v 0.9 0.3 -1.5
v 0.9 0.4 -1.5
v 1.1 0.3 -1.5
v 1.1 0.4 -1.5
v -1.1 0.3 1.1
v 1.5 0.3 1.1
v -0.9 0.3 0.9
v 1.5 0.3 0.9
v -0.1 0.3 0.1
v 0.4 0.3 0.1
v 0.6 0.3 0.1
v 1.4 0.3 0.1
v 0.1 0.3 -0.1
v 0.4 0.3 -0.1
v 0.6 0.3 -0.1
v 1.4 0.3 -0.1
v -0.1 0.3 -0.4
v 0.1 0.3 -0.4
v -0.1 0.3 -0.6
v 0.1 0.3 -0.6
v 0.9 0.3 -0.9
v 1.5 0.3 -0.9
v 1.1 0.3 -1.1
v 1.5 0.3 -1.1
v -0.1 0.3 -1.4
v 0.1 0.3 -1.4
v -1.1 0.3 -1.5
v -0.9 0.3 -1.5
v 0.9 0.3 -1.5
v 1.1 0.3 -1.5
v -1.1 0.4 1.1
v 1.5 0.4 1.1
v -0.9 0.4 0.9
v 1.5 0.4 0.9
v -0.1 0.4 0.1
v 0.4 0.4 0.1
v 0.6 0.4 0.1
v 1.4 0.4 0.1
v 0.1 0.4 -0.1
v 0.4 0.4 -0.1
v 0.6 0.4 -0.1
v 1.4 0.4 -0.1
v -0.1 0.4 -0.4
v 0.1 0.4 -0.4
v -0.1 0.4 -0.6
v 0.1 0.4 -0.6
v 0.9 0.4 -0.9
v 1.5 0.4 -0.9
v 1.1 0.4 -1.1
v 1.5 0.4 -1.1
v -0.1 0.4 -1.4
v 0.1 0.4 -1.4
v -1.1 0.4 -1.5
v -0.9 0.4 -1.5
v 0.9 0.4 -1.5
v 1.1 0.4 -1.5

# faces
f 3/2/1 2/2/1 1/2/1
f 4/2/1 2/2/1 3/2/1
f 5/2/2 6/2/2 7/2/2
f 7/2/2 6/2/2 8/2/2
f 9/2/2 10/2/2 13/2/2
f 10/1/2 11/1/2 14/1/2
f 13/2/2 10/2/2 14/2/2
f 11/2/2 12/2/2 15/2/2
f 14/1/2 11/1/2 15/1/2
f 15/2/2 12/2/2 16/2/2
f 19/2/3 18/2/3 17/2/3
f 20/2/3 18/2/3 19/2/3
f 21/2/4 22/2/4 23/2/4
f 23/2/4 22/2/4 24/2/4
f 25/2/4 26/2/4 27/2/4
f 27/2/4 26/2/4 28/2/4
f 27/1/4 28/1/4 29/1/4
f 29/1/4 28/1/4 30/1/4
f 29/2/4 30/2/4 31/2/4
f 31/2/4 30/2/4 32/2/4
f 35/2/5 34/2/5 33/2/5
f 36/2/5 34/2/5 35/2/5
f 37/1/5 36/1/5 35/1/5
f 38/1/5 36/1/5 37/1/5
f 39/1/5 36/1/5 38/1/5
f 40/1/5 36/1/5 39/1/5
f 41/3/5 38/3/5 37/3/5
f 42/1/5 39/1/5 38/1/5
f 42/3/5 38/3/5 41/3/5
f 43/3/5 40/3/5 39/3/5
f 43/1/5 39/1/5 42/1/5
f 44/1/5 36/1/5 40/1/5
f 44/3/5 40/3/5 43/3/5
f 45/1/5 37/1/5 35/1/5
f 45/3/5 41/3/5 37/3/5
f 46/1/5 43/1/5 42/1/5
f 46/3/5 41/3/5 45/3/5
f 46/1/5 44/1/5 43/1/5
f 46/1/5 42/1/5 41/1/5
f 47/1/5 45/1/5 35/1/5
f 47/1/5 46/1/5 45/1/5
f 48/1/5 44/1/5 46/1/5
f 48/1/5 46/1/5 47/1/5
f 49/1/5 44/1/5 48/1/5
f 50/1/5 36/1/5 44/1/5
f 50/1/5 44/1/5 49/1/5
f 51/2/5 50/2/5 49/2/5
f 52/2/5 50/2/5 51/2/5
f 53/1/5 47/1/5 35/1/5
f 53/3/5 48/3/5 47/3/5
f 54/1/5 49/1/5 48/1/5
f 54/3/5 48/3/5 53/3/5
f 55/2/5 35/2/5 33/2/5
f 56/1/5 53/1/5 35/1/5
f 56/2/5 35/2/5 55/2/5
f 56/1/5 54/1/5 53/1/5
f 57/1/5 49/1/5 54/1/5
f 57/1/5 54/1/5 56/1/5
f 57/2/5 51/2/5 49/2/5
f 58/2/5 51/2/5 57/2/5
f 59/2/6 60/2/6 61/2/6
f 61/2/6 60/2/6 62/2/6
f 61/1/6 62/1/6 63/1/6
f 63/1/6 62/1/6 64/1/6
f 64/1/6 62/1/6 65/1/6
f 65/1/6 62/1/6 66/1/6
f 63/3/6 64/3/6 67/3/6
f 64/1/6 65/1/6 68/1/6
f 67/3/6 64/3/6 68/3/6
f 65/3/6 66/3/6 69/3/6
f 68/1/6 65/1/6 69/1/6
f 66/1/6 62/1/6 70/1/6
f 69/3/6 66/3/6 70/3/6
f 61/1/6 63/1/6 71/1/6
f 63/3/6 67/3/6 71/3/6
f 68/1/6 69/1/6 72/1/6
f 71/3/6 67/3/6 72/3/6
f 69/1/6 70/1/6 72/1/6
f 67/1/6 68/1/6 72/1/6
f 61/1/6 71/1/6 73/1/6
f 71/1/6 72/1/6 73/1/6
f 72/1/6 70/1/6 74/1/6
f 73/1/6 72/1/6 74/1/6
f 74/1/6 70/1/6 75/1/6
f 70/1/6 62/1/6 76/1/6
f 75/1/6 70/1/6 76/1/6
f 75/2/6 76/2/6 77/2/6
f 77/2/6 76/2/6 78/2/6
f 61/1/6 73/1/6 79/1/6
f 73/3/6 74/3/6 79/3/6
f 74/1/6 75/1/6 80/1/6
f 79/3/6 74/3/6 80/3/6
f 59/2/6 61/2/6 81/2/6
f 61/1/6 79/1/6 82/1/6
f 81/2/6 61/2/6 82/2/6
f 79/1/6 80/1/6 82/1/6
f 80/1/6 75/1/6 83/1/6
f 82/1/6 80/1/6 83/1/6
f 75/2/6 77/2/6 83/2/6
f 83/2/6 77/2/6 84/2/6
