# MagicaVoxel @ Ephtracy

# group
o 

# material
mtllib Platform-0.mtl
usemtl palette

# normals
vn -1 0 0
vn 1 0 0
vn 0 0 1
vn 0 0 -1
vn 0 -1 0
vn 0 1 0

# texcoords
vt 0.966797 0.5
vt 0.990234 0.5
vt 0.994141 0.5

# verts
v -0.7 0 1.9
v -0.7 0 -1.9
v -0.7 0.1 1.9
v -0.7 0.1 -1.9
v -0.6 0 2
v -0.6 0 1.9
v -0.6 0 -1.9
v -0.6 0 -2
v -0.6 0.1 2
v -0.6 0.1 1.9
v -0.6 0.1 -1.9
v -0.6 0.1 -2
v -0.3 0.1 1.6
v -0.3 0.1 0.4
v -0.3 0.1 -0.4
v -0.3 0.1 -1.5
v -0.3 0.2 1.6
v -0.3 0.2 0.4
v -0.3 0.2 -0.4
v -0.3 0.2 -1.5
v 0.8 0.1 1.6
v 0.8 0.1 0.4
v 0.8 0.1 -0.4
v 0.8 0.1 -1.5
v 0.8 0.2 1.6
v 0.8 0.2 0.4
v 0.8 0.2 -0.4
v 0.8 0.2 -1.5
v 0.6 0.1 1.6
v 0.6 0.1 0.4
v 0.6 0.1 -0.4
v 0.6 0.1 -1.5
v 0.6 0.2 1.6
v 0.6 0.2 0.4
v 0.6 0.2 -0.4
v 0.6 0.2 -1.5
v 1.7 0.1 1.6
v 1.7 0.1 0.4
v 1.7 0.1 -0.4
v 1.7 0.1 -1.5
v 1.7 0.2 1.6
v 1.7 0.2 0.4
v 1.7 0.2 -0.4
v 1.7 0.2 -1.5
v 1.9 0 2
v 1.9 0 1.9
v 1.9 0 -1.9
v 1.9 0 -2
v 1.9 0.1 2
v 1.9 0.1 1.9
v 1.9 0.1 -1.9
v 1.9 0.1 -2
v 2 0 1.9
v 2 0 -1.9
v 2 0.1 1.9
v 2 0.1 -1.9
v -0.6 0 2
v -0.6 0.1 2
v 1.9 0 2
v 1.9 0.1 2
v -0.7 0 1.9
v -0.7 0.1 1.9
v -0.6 0 1.9
v -0.6 0.1 1.9
v 1.9 0 1.9
v 1.9 0.1 1.9
v 2 0 1.9
v 2 0.1 1.9
v -0.3 0.1 1.6
v -0.3 0.2 1.6
v 0.6 0.1 1.6
v 0.6 0.2 1.6
v 0.8 0.1 1.6
v 0.8 0.2 1.6
v 1.7 0.1 1.6
v 1.7 0.2 1.6
v -0.3 0.1 -0.4
v -0.3 0.2 -0.4
v 0.6 0.1 -0.4
v 0.6 0.2 -0.4
v 0.8 0.1 -0.4
v 0.8 0.2 -0.4
v 1.7 0.1 -0.4
v 1.7 0.2 -0.4
v -0.3 0.1 0.4
v -0.3 0.2 0.4
v 0.6 0.1 0.4
v 0.6 0.2 0.4
v 0.8 0.1 0.4
v 0.8 0.2 0.4
v 1.7 0.1 0.4
v 1.7 0.2 0.4
v -0.3 0.1 -1.5
v -0.3 0.2 -1.5
v 0.6 0.1 -1.5
v 0.6 0.2 -1.5
v 0.8 0.1 -1.5
v 0.8 0.2 -1.5
v 1.7 0.1 -1.5
v 1.7 0.2 -1.5
v -0.7 0 -1.9
v -0.7 0.1 -1.9
v -0.6 0 -1.9
v -0.6 0.1 -1.9
v 1.9 0 -1.9
v 1.9 0.1 -1.9
v 2 0 -1.9
v 2 0.1 -1.9
v -0.6 0 -2
v -0.6 0.1 -2
v 1.9 0 -2
v 1.9 0.1 -2
v -0.6 0 2
v 1.9 0 2
v -0.7 0 1.9
v -0.6 0 1.9
v 1.9 0 1.9
v 2 0 1.9
v -0.5 0 1.8
v 1.8 0 1.8
v -0.5 0 -1.8
v 1.8 0 -1.8
v -0.7 0 -1.9
v -0.6 0 -1.9
v 1.9 0 -1.9
v 2 0 -1.9
v -0.6 0 -2
v 1.9 0 -2
v -0.6 0.1 2
v 1.9 0.1 2
v -0.7 0.1 1.9
v -0.6 0.1 1.9
v 1.9 0.1 1.9
v 2 0.1 1.9
v -0.5 0.1 1.8
v 1.8 0.1 1.8
v -0.3 0.1 1.6
v 0.6 0.1 1.6
v 0.8 0.1 1.6
v 1.7 0.1 1.6
v -0.3 0.1 0.4
v 0.6 0.1 0.4
v 0.8 0.1 0.4
v 1.7 0.1 0.4
v -0.3 0.1 -0.4
v 0.6 0.1 -0.4
v 0.8 0.1 -0.4
v 1.7 0.1 -0.4
v -0.3 0.1 -1.5
v 0.6 0.1 -1.5
v 0.8 0.1 -1.5
v 1.7 0.1 -1.5
v -0.5 0.1 -1.8
v 1.8 0.1 -1.8
v -0.7 0.1 -1.9
v -0.6 0.1 -1.9
v 1.9 0.1 -1.9
v 2 0.1 -1.9
v -0.6 0.1 -2
v 1.9 0.1 -2
v -0.3 0.2 1.6
v 0.6 0.2 1.6
v 0.8 0.2 1.6
v 1.7 0.2 1.6
v -0.3 0.2 0.4
v 0.6 0.2 0.4
v 0.8 0.2 0.4
v 1.7 0.2 0.4
v -0.3 0.2 -0.4
v 0.6 0.2 -0.4
v 0.8 0.2 -0.4
v 1.7 0.2 -0.4
v -0.3 0.2 -1.5
v 0.6 0.2 -1.5
v 0.8 0.2 -1.5
v 1.7 0.2 -1.5

# faces
f 3/2/1 2/2/1 1/2/1
f 4/2/1 2/2/1 3/2/1
f 9/2/1 6/2/1 5/2/1
f 10/2/1 6/2/1 9/2/1
f 11/2/1 8/2/1 7/2/1
f 12/2/1 8/2/1 11/2/1
f 17/3/1 14/3/1 13/3/1
f 18/3/1 14/3/1 17/3/1
f 19/3/1 16/3/1 15/3/1
f 20/3/1 16/3/1 19/3/1
f 25/3/1 22/3/1 21/3/1
f 26/3/1 22/3/1 25/3/1
f 27/3/1 24/3/1 23/3/1
f 28/3/1 24/3/1 27/3/1
f 29/3/2 30/3/2 33/3/2
f 33/3/2 30/3/2 34/3/2
f 31/3/2 32/3/2 35/3/2
f 35/3/2 32/3/2 36/3/2
f 37/3/2 38/3/2 41/3/2
f 41/3/2 38/3/2 42/3/2
f 39/3/2 40/3/2 43/3/2
f 43/3/2 40/3/2 44/3/2
f 45/2/2 46/2/2 49/2/2
f 49/2/2 46/2/2 50/2/2
f 47/2/2 48/2/2 51/2/2
f 51/2/2 48/2/2 52/2/2
f 53/2/2 54/2/2 55/2/2
f 55/2/2 54/2/2 56/2/2
f 59/2/3 58/2/3 57/2/3
f 60/2/3 58/2/3 59/2/3
f 63/2/3 62/2/3 61/2/3
f 64/2/3 62/2/3 63/2/3
f 67/2/3 66/2/3 65/2/3
f 68/2/3 66/2/3 67/2/3
f 71/3/3 70/3/3 69/3/3
f 72/3/3 70/3/3 71/3/3
f 75/3/3 74/3/3 73/3/3
f 76/3/3 74/3/3 75/3/3
f 79/3/3 78/3/3 77/3/3
f 80/3/3 78/3/3 79/3/3
f 83/3/3 82/3/3 81/3/3
f 84/3/3 82/3/3 83/3/3
f 85/3/4 86/3/4 87/3/4
f 87/3/4 86/3/4 88/3/4
f 89/3/4 90/3/4 91/3/4
f 91/3/4 90/3/4 92/3/4
f 93/3/4 94/3/4 95/3/4
f 95/3/4 94/3/4 96/3/4
f 97/3/4 98/3/4 99/3/4
f 99/3/4 98/3/4 100/3/4
f 101/2/4 102/2/4 103/2/4
f 103/2/4 102/2/4 104/2/4
f 105/2/4 106/2/4 107/2/4
f 107/2/4 106/2/4 108/2/4
f 109/2/4 110/2/4 111/2/4
f 111/2/4 110/2/4 112/2/4
f 116/2/5 114/2/5 113/2/5
f 117/2/5 114/2/5 116/2/5
f 119/2/5 116/2/5 115/2/5
f 119/2/5 118/2/5 117/2/5
f 119/2/5 117/2/5 116/2/5
f 120/2/5 118/2/5 119/2/5
f 121/2/5 119/2/5 115/2/5
f 121/1/5 120/1/5 119/1/5
f 122/2/5 118/2/5 120/2/5
f 122/1/5 120/1/5 121/1/5
f 123/2/5 121/2/5 115/2/5
f 123/2/5 122/2/5 121/2/5
f 124/2/5 122/2/5 123/2/5
f 125/2/5 118/2/5 122/2/5
f 125/2/5 122/2/5 124/2/5
f 126/2/5 118/2/5 125/2/5
f 127/2/5 125/2/5 124/2/5
f 128/2/5 125/2/5 127/2/5
f 129/2/6 130/2/6 132/2/6
f 132/2/6 130/2/6 133/2/6
f 131/2/6 132/2/6 135/2/6
f 133/2/6 134/2/6 135/2/6
f 132/2/6 133/2/6 135/2/6
f 135/2/6 134/2/6 136/2/6
f 135/1/6 136/1/6 137/1/6
f 137/1/6 136/1/6 138/1/6
f 138/1/6 136/1/6 139/1/6
f 139/1/6 136/1/6 140/1/6
f 135/1/6 137/1/6 141/1/6
f 138/1/6 139/1/6 142/1/6
f 142/1/6 139/1/6 143/1/6
f 140/1/6 136/1/6 144/1/6
f 142/1/6 143/1/6 145/1/6
f 143/1/6 144/1/6 145/1/6
f 135/1/6 141/1/6 145/1/6
f 141/1/6 142/1/6 145/1/6
f 145/1/6 144/1/6 146/1/6
f 146/1/6 144/1/6 147/1/6
f 144/1/6 136/1/6 148/1/6
f 147/1/6 144/1/6 148/1/6
f 135/1/6 145/1/6 149/1/6
f 146/1/6 147/1/6 150/1/6
f 150/1/6 147/1/6 151/1/6
f 148/1/6 136/1/6 152/1/6
f 131/2/6 135/2/6 153/2/6
f 151/1/6 152/1/6 153/1/6
f 135/1/6 149/1/6 153/1/6
f 150/1/6 151/1/6 153/1/6
f 149/1/6 150/1/6 153/1/6
f 152/1/6 136/1/6 154/1/6
f 153/1/6 152/1/6 154/1/6
f 136/2/6 134/2/6 154/2/6
f 131/2/6 153/2/6 155/2/6
f 153/2/6 154/2/6 155/2/6
f 155/2/6 154/2/6 156/2/6
f 154/2/6 134/2/6 157/2/6
f 156/2/6 154/2/6 157/2/6
f 157/2/6 134/2/6 158/2/6
f 156/2/6 157/2/6 159/2/6
f 159/2/6 157/2/6 160/2/6
f 161/3/6 162/3/6 165/3/6
f 165/3/6 162/3/6 166/3/6
f 163/3/6 164/3/6 167/3/6
f 167/3/6 164/3/6 168/3/6
f 169/3/6 170/3/6 173/3/6
f 173/3/6 170/3/6 174/3/6
f 171/3/6 172/3/6 175/3/6
f 175/3/6 172/3/6 176/3/6
