# MagicaVoxel @ Ephtracy

# group
o 

# material
mtllib Road_Turn.mtl
usemtl palette

# normals
vn -1 0 0
vn 1 0 0
vn 0 0 1
vn 0 0 -1
vn 0 -1 0
vn 0 1 0

# texcoords
vt 0.958984 0.5
vt 0.994141 0.5

# verts
v -1.8 0 -1.8
v -1.8 0 -4.8
v -1.8 0.1 -1.8
v -1.8 0.1 -2
v -1.8 0.1 -4.8
v -1.8 0.2 -1.8
v -1.8 0.2 -2
v 0.8 0.1 -2
v 0.8 0.1 -4.8
v 0.8 0.2 -2
v 0.8 0.2 -4.8
v 1 0 -1.8
v 1 0 -4.8
v 1 0.1 -1.8
v 1 0.1 -4.8
v 1 0.2 -1.8
v 1 0.2 -4.8
v -1.8 0 -1.8
v -1.8 0.1 -1.8
v -1.8 0.2 -1.8
v 1 0 -1.8
v 1 0.1 -1.8
v 1 0.2 -1.8
v -1.8 0.1 -2
v -1.8 0.2 -2
v 0.8 0.1 -2
v 0.8 0.2 -2
v -1.8 0 -4.8
v -1.8 0.1 -4.8
v 0.8 0.1 -4.8
v 0.8 0.2 -4.8
v 1 0 -4.8
v 1 0.1 -4.8
v 1 0.2 -4.8
v -1.8 0 -1.8
v 1 0 -1.8
v -1.8 0 -4.8
v 1 0 -4.8
v -1.8 0.1 -2
v 0.8 0.1 -2
v -1.8 0.1 -4.8
v 0.8 0.1 -4.8
v -1.8 0.2 -1.8
v 1 0.2 -1.8
v -1.8 0.2 -2
v 0.8 0.2 -2
v 0.8 0.2 -4.8
v 1 0.2 -4.8

# faces
f 3/2/1 2/2/1 1/2/1
f 4/2/1 2/2/1 3/2/1
f 5/2/1 2/2/1 4/2/1
f 6/1/1 4/1/1 3/1/1
f 7/1/1 4/1/1 6/1/1
f 10/1/1 9/1/1 8/1/1
f 11/1/1 9/1/1 10/1/1
f 12/2/2 13/2/2 14/2/2
f 14/2/2 13/2/2 15/2/2
f 14/1/2 15/1/2 16/1/2
f 16/1/2 15/1/2 17/1/2
f 21/2/3 19/2/3 18/2/3
f 22/1/3 20/1/3 19/1/3
f 22/2/3 19/2/3 21/2/3
f 23/1/3 20/1/3 22/1/3
f 24/1/4 25/1/4 26/1/4
f 26/1/4 25/1/4 27/1/4
f 28/2/4 29/2/4 30/2/4
f 28/2/4 30/2/4 32/2/4
f 30/1/4 31/1/4 33/1/4
f 32/2/4 30/2/4 33/2/4
f 33/1/4 31/1/4 34/1/4
f 37/2/5 36/2/5 35/2/5
f 38/2/5 36/2/5 37/2/5
f 39/2/6 40/2/6 41/2/6
f 41/2/6 40/2/6 42/2/6
f 43/1/6 44/1/6 45/1/6
f 45/1/6 44/1/6 46/1/6
f 46/1/6 44/1/6 47/1/6
f 47/1/6 44/1/6 48/1/6
