# MagicaVoxel @ Ephtracy

# group
o 

# material
mtllib 4wayRoad.mtl
usemtl palette

# normals
vn -1 0 0
vn 1 0 0
vn 0 0 1
vn 0 0 -1
vn 0 -1 0
vn 0 1 0

# texcoords
vt 0.00976563 0.5
vt 0.0917969 0.5
vt 0.123047 0.5

# verts
v -1.5 0.3 1.1
v -1.5 0.3 0.9
v -1.5 0.3 -0.9
v -1.5 0.3 -1.1
v -1.5 0.4 1.1
v -1.5 0.4 0.9
v -1.5 0.4 -0.9
v -1.5 0.4 -1.1
v -1.1 0.3 1.5
v -1.1 0.3 1.1
v -1.1 0.3 -1.1
v -1.1 0.3 -1.5
v -1.1 0.4 1.5
v -1.1 0.4 1.1
v -1.1 0.4 -1.1
v -1.1 0.4 -1.5
v 1.1 0.3 1.5
v 1.1 0.3 1.1
v 1.1 0.3 -1.1
v 1.1 0.3 -1.5
v 1.1 0.4 1.5
v 1.1 0.4 1.1
v 1.1 0.4 -1.1
v 1.1 0.4 -1.5
v 1.5 0.3 1.1
v 1.5 0.3 0.9
v 1.5 0.3 -0.9
v 1.5 0.3 -1.1
v 1.5 0.4 1.1
v 1.5 0.4 0.9
v 1.5 0.4 -0.9
v 1.5 0.4 -1.1
v -1.1 0.3 1.5
v -1.1 0.4 1.5
v -0.9 0.3 1.5
v -0.9 0.4 1.5
v 0.9 0.3 1.5
v 0.9 0.4 1.5
v 1.1 0.3 1.5
v 1.1 0.4 1.5
v -1.5 0.3 1.1
v -1.5 0.4 1.1
v -1.1 0.3 1.1
v -1.1 0.4 1.1
v 1.1 0.3 1.1
v 1.1 0.4 1.1
v 1.5 0.3 1.1
v 1.5 0.4 1.1
v -1.5 0.3 -1.1
v -1.5 0.4 -1.1
v -1.1 0.3 -1.1
v -1.1 0.4 -1.1
v 1.1 0.3 -1.1
v 1.1 0.4 -1.1
v 1.5 0.3 -1.1
v 1.5 0.4 -1.1
v -1.1 0.3 -1.5
v -1.1 0.4 -1.5
v -0.9 0.3 -1.5
v -0.9 0.4 -1.5
v 0.9 0.3 -1.5
v 0.9 0.4 -1.5
v 1.1 0.3 -1.5
v 1.1 0.4 -1.5
v -1.1 0.3 1.5
v -0.9 0.3 1.5
v 0.9 0.3 1.5
v 1.1 0.3 1.5
v -0.1 0.3 1.4
v 0.1 0.3 1.4
v -1.5 0.3 1.1
v -1.1 0.3 1.1
v 1.1 0.3 1.1
v 1.5 0.3 1.1
v -1.5 0.3 0.9
v -0.9 0.3 0.9
v 0.9 0.3 0.9
v 1.5 0.3 0.9
v -0.1 0.3 0.6
v 0.1 0.3 0.6
v -0.1 0.3 0.4
v 0.1 0.3 0.4
v -1.4 0.3 0.1
v -0.6 0.3 0.1
v -0.4 0.3 0.1
v -0.1 0.3 0.1
v 0.1 0.3 0.1
v 0.4 0.3 0.1
v 0.6 0.3 0.1
v 1.4 0.3 0.1
v -1.4 0.3 -0.1
v -0.6 0.3 -0.1
v -0.4 0.3 -0.1
v -0.1 0.3 -0.1
v 0.1 0.3 -0.1
v 0.4 0.3 -0.1
v 0.6 0.3 -0.1
v 1.4 0.3 -0.1
v -0.1 0.3 -0.4
v 0.1 0.3 -0.4
v -0.1 0.3 -0.6
v 0.1 0.3 -0.6
v -1.5 0.3 -0.9
v -0.9 0.3 -0.9
v 0.9 0.3 -0.9
v 1.5 0.3 -0.9
v -1.5 0.3 -1.1
v -1.1 0.3 -1.1
v 1.1 0.3 -1.1
v 1.5 0.3 -1.1
v -0.1 0.3 -1.4
v 0.1 0.3 -1.4
v -1.1 0.3 -1.5
v -0.9 0.3 -1.5
v 0.9 0.3 -1.5
v 1.1 0.3 -1.5
v -1.1 0.4 1.5
v -0.9 0.4 1.5
v 0.9 0.4 1.5
v 1.1 0.4 1.5
v -0.1 0.4 1.4
v 0.1 0.4 1.4
v -1.5 0.4 1.1
v -1.1 0.4 1.1
v 1.1 0.4 1.1
v 1.5 0.4 1.1
v -1.5 0.4 0.9
v -0.9 0.4 0.9
v 0.9 0.4 0.9
v 1.5 0.4 0.9
v -0.1 0.4 0.6
v 0.1 0.4 0.6
v -0.1 0.4 0.4
v 0.1 0.4 0.4
v -1.4 0.4 0.1
v -0.6 0.4 0.1
v -0.4 0.4 0.1
v -0.1 0.4 0.1
v 0.1 0.4 0.1
v 0.4 0.4 0.1
v 0.6 0.4 0.1
v 1.4 0.4 0.1
v -1.4 0.4 -0.1
v -0.6 0.4 -0.1
v -0.4 0.4 -0.1
v -0.1 0.4 -0.1
v 0.1 0.4 -0.1
v 0.4 0.4 -0.1
v 0.6 0.4 -0.1
v 1.4 0.4 -0.1
v -0.1 0.4 -0.4
v 0.1 0.4 -0.4
v -0.1 0.4 -0.6
v 0.1 0.4 -0.6
v -1.5 0.4 -0.9
v -0.9 0.4 -0.9
v 0.9 0.4 -0.9
v 1.5 0.4 -0.9
v -1.5 0.4 -1.1
v -1.1 0.4 -1.1
v 1.1 0.4 -1.1
v 1.5 0.4 -1.1
v -0.1 0.4 -1.4
v 0.1 0.4 -1.4
v -1.1 0.4 -1.5
v -0.9 0.4 -1.5
v 0.9 0.4 -1.5
v 1.1 0.4 -1.5

# faces
f 5/2/1 2/2/1 1/2/1
f 6/1/1 3/1/1 2/1/1
f 6/2/1 2/2/1 5/2/1
f 7/2/1 4/2/1 3/2/1
f 7/1/1 3/1/1 6/1/1
f 8/2/1 4/2/1 7/2/1
f 13/2/1 10/2/1 9/2/1
f 14/2/1 10/2/1 13/2/1
f 15/2/1 12/2/1 11/2/1
f 16/2/1 12/2/1 15/2/1
f 17/2/2 18/2/2 21/2/2
f 21/2/2 18/2/2 22/2/2
f 19/2/2 20/2/2 23/2/2
f 23/2/2 20/2/2 24/2/2
f 25/2/2 26/2/2 29/2/2
f 26/1/2 27/1/2 30/1/2
f 29/2/2 26/2/2 30/2/2
f 27/2/2 28/2/2 31/2/2
f 30/1/2 27/1/2 31/1/2
f 31/2/2 28/2/2 32/2/2
f 35/2/3 34/2/3 33/2/3
f 36/2/3 34/2/3 35/2/3
f 37/1/3 36/1/3 35/1/3
f 38/1/3 36/1/3 37/1/3
f 39/2/3 38/2/3 37/2/3
f 40/2/3 38/2/3 39/2/3
f 43/2/3 42/2/3 41/2/3
f 44/2/3 42/2/3 43/2/3
f 47/2/3 46/2/3 45/2/3
f 48/2/3 46/2/3 47/2/3
f 49/2/4 50/2/4 51/2/4
f 51/2/4 50/2/4 52/2/4
f 53/2/4 54/2/4 55/2/4
f 55/2/4 54/2/4 56/2/4
f 57/2/4 58/2/4 59/2/4
f 59/2/4 58/2/4 60/2/4
f 59/1/4 60/1/4 61/1/4
f 61/1/4 60/1/4 62/1/4
f 61/2/4 62/2/4 63/2/4
f 63/2/4 62/2/4 64/2/4
f 69/1/5 67/1/5 66/1/5
f 70/1/5 67/1/5 69/1/5
f 72/2/5 66/2/5 65/2/5
f 73/2/5 68/2/5 67/2/5
f 75/2/5 72/2/5 71/2/5
f 76/1/5 69/1/5 66/1/5
f 76/2/5 72/2/5 75/2/5
f 76/2/5 66/2/5 72/2/5
f 77/1/5 67/1/5 70/1/5
f 77/2/5 74/2/5 73/2/5
f 77/2/5 73/2/5 67/2/5
f 78/2/5 74/2/5 77/2/5
f 79/1/5 69/1/5 76/1/5
f 79/1/5 76/1/5 75/1/5
f 79/3/5 70/3/5 69/3/5
f 80/1/5 78/1/5 77/1/5
f 80/3/5 70/3/5 79/3/5
f 80/1/5 77/1/5 70/1/5
f 81/1/5 79/1/5 75/1/5
f 81/1/5 80/1/5 79/1/5
f 82/1/5 78/1/5 80/1/5
f 82/1/5 80/1/5 81/1/5
f 83/1/5 81/1/5 75/1/5
f 84/1/5 81/1/5 83/1/5
f 85/1/5 81/1/5 84/1/5
f 86/3/5 82/3/5 81/3/5
f 86/1/5 81/1/5 85/1/5
f 87/1/5 78/1/5 82/1/5
f 87/3/5 82/3/5 86/3/5
f 88/1/5 78/1/5 87/1/5
f 89/1/5 78/1/5 88/1/5
f 90/1/5 78/1/5 89/1/5
f 91/1/5 83/1/5 75/1/5
f 91/3/5 84/3/5 83/3/5
f 92/1/5 85/1/5 84/1/5
f 92/3/5 84/3/5 91/3/5
f 93/3/5 86/3/5 85/3/5
f 93/1/5 85/1/5 92/1/5
f 93/3/5 87/3/5 86/3/5
f 93/3/5 88/3/5 87/3/5
f 94/3/5 88/3/5 93/3/5
f 95/3/5 88/3/5 94/3/5
f 96/1/5 89/1/5 88/1/5
f 96/3/5 88/3/5 95/3/5
f 97/3/5 90/3/5 89/3/5
f 97/1/5 89/1/5 96/1/5
f 98/1/5 78/1/5 90/1/5
f 98/3/5 90/3/5 97/3/5
f 99/1/5 92/1/5 91/1/5
f 99/3/5 95/3/5 94/3/5
f 99/1/5 93/1/5 92/1/5
f 99/1/5 94/1/5 93/1/5
f 100/1/5 97/1/5 96/1/5
f 100/3/5 95/3/5 99/3/5
f 100/1/5 96/1/5 95/1/5
f 100/1/5 98/1/5 97/1/5
f 101/1/5 99/1/5 91/1/5
f 101/1/5 100/1/5 99/1/5
f 102/1/5 98/1/5 100/1/5
f 102/1/5 100/1/5 101/1/5
f 103/1/5 91/1/5 75/1/5
f 103/1/5 101/1/5 91/1/5
f 104/1/5 101/1/5 103/1/5
f 105/1/5 98/1/5 102/1/5
f 106/1/5 78/1/5 98/1/5
f 106/1/5 98/1/5 105/1/5
f 107/2/5 104/2/5 103/2/5
f 108/2/5 104/2/5 107/2/5
f 109/2/5 106/2/5 105/2/5
f 110/2/5 106/2/5 109/2/5
f 111/1/5 101/1/5 104/1/5
f 111/3/5 102/3/5 101/3/5
f 112/1/5 105/1/5 102/1/5
f 112/3/5 102/3/5 111/3/5
f 113/2/5 104/2/5 108/2/5
f 114/1/5 111/1/5 104/1/5
f 114/2/5 104/2/5 113/2/5
f 114/1/5 112/1/5 111/1/5
f 115/2/5 109/2/5 105/2/5
f 115/1/5 112/1/5 114/1/5
f 115/1/5 105/1/5 112/1/5
f 116/2/5 109/2/5 115/2/5
f 118/1/6 119/1/6 121/1/6
f 121/1/6 119/1/6 122/1/6
f 117/2/6 118/2/6 124/2/6
f 119/2/6 120/2/6 125/2/6
f 123/2/6 124/2/6 127/2/6
f 118/1/6 121/1/6 128/1/6
f 127/2/6 124/2/6 128/2/6
f 124/2/6 118/2/6 128/2/6
f 122/1/6 119/1/6 129/1/6
f 125/2/6 126/2/6 129/2/6
f 119/2/6 125/2/6 129/2/6
f 129/2/6 126/2/6 130/2/6
f 128/1/6 121/1/6 131/1/6
f 127/1/6 128/1/6 131/1/6
f 121/3/6 122/3/6 131/3/6
f 129/1/6 130/1/6 132/1/6
f 131/3/6 122/3/6 132/3/6
f 122/1/6 129/1/6 132/1/6
f 127/1/6 131/1/6 133/1/6
f 131/1/6 132/1/6 133/1/6
f 132/1/6 130/1/6 134/1/6
f 133/1/6 132/1/6 134/1/6
f 127/1/6 133/1/6 135/1/6
f 135/1/6 133/1/6 136/1/6
f 136/1/6 133/1/6 137/1/6
f 133/3/6 134/3/6 138/3/6
f 137/1/6 133/1/6 138/1/6
f 134/1/6 130/1/6 139/1/6
f 138/3/6 134/3/6 139/3/6
f 139/1/6 130/1/6 140/1/6
f 140/1/6 130/1/6 141/1/6
f 141/1/6 130/1/6 142/1/6
f 127/1/6 135/1/6 143/1/6
f 135/3/6 136/3/6 143/3/6
f 136/1/6 137/1/6 144/1/6
f 143/3/6 136/3/6 144/3/6
f 137/3/6 138/3/6 145/3/6
f 144/1/6 137/1/6 145/1/6
f 138/3/6 139/3/6 145/3/6
f 139/3/6 140/3/6 145/3/6
f 145/3/6 140/3/6 146/3/6
f 146/3/6 140/3/6 147/3/6
f 140/1/6 141/1/6 148/1/6
f 147/3/6 140/3/6 148/3/6
f 141/3/6 142/3/6 149/3/6
f 148/1/6 141/1/6 149/1/6
f 142/1/6 130/1/6 150/1/6
f 149/3/6 142/3/6 150/3/6
f 143/1/6 144/1/6 151/1/6
f 146/3/6 147/3/6 151/3/6
f 144/1/6 145/1/6 151/1/6
f 145/1/6 146/1/6 151/1/6
f 148/1/6 149/1/6 152/1/6
f 151/3/6 147/3/6 152/3/6
f 147/1/6 148/1/6 152/1/6
f 149/1/6 150/1/6 152/1/6
f 143/1/6 151/1/6 153/1/6
f 151/1/6 152/1/6 153/1/6
f 152/1/6 150/1/6 154/1/6
f 153/1/6 152/1/6 154/1/6
f 127/1/6 143/1/6 155/1/6
f 143/1/6 153/1/6 155/1/6
f 155/1/6 153/1/6 156/1/6
f 154/1/6 150/1/6 157/1/6
f 150/1/6 130/1/6 158/1/6
f 157/1/6 150/1/6 158/1/6
f 155/2/6 156/2/6 159/2/6
f 159/2/6 156/2/6 160/2/6
f 157/2/6 158/2/6 161/2/6
f 161/2/6 158/2/6 162/2/6
f 156/1/6 153/1/6 163/1/6
f 153/3/6 154/3/6 163/3/6
f 154/1/6 157/1/6 164/1/6
f 163/3/6 154/3/6 164/3/6
f 160/2/6 156/2/6 165/2/6
f 156/1/6 163/1/6 166/1/6
f 165/2/6 156/2/6 166/2/6
f 163/1/6 164/1/6 166/1/6
f 157/2/6 161/2/6 167/2/6
f 166/1/6 164/1/6 167/1/6
f 164/1/6 157/1/6 167/1/6
f 167/2/6 161/2/6 168/2/6
